 <svg width="16" height="16" viewBox="0 0 16 16" fill="context-fill" fill-opacity="context-fill-opacity" xmlns="http://www.w3.org/2000/svg"><path d="m 9.9263265,12.795008 c -7.2626667,-8.6666671 -3.6313333,-4.3333336 0,0 z m -3.182,0.205 L 2,13 c -1.1045695,-2e-6 -2,-0.895431 -2,-2 V 4 C 0,2.8954305 0.8954305,2 2,2 H 12 C 12.727948,1.99791 13.399007,2.3932571 13.75,3.031 13.91,3.318 14,3.648 14,4 v 5.04975 c -0.282,0.067 -0.55,0.21 -0.769,0.43 L 12.75,8.96025 V 4 C 12.75,3.5857864 12.414214,3.25 12,3.25 H 2 C 1.5857864,3.25 1.25,3.5857864 1.25,4 v 7 c 0,0.414 0.336,0.75 0.75,0.75 l 1.9943265,8e-6 z M 16,9.50175 V 2 C 16,0.8954305 15.104569,0 14,0 H 4 C 3.2852656,-8.090537e-4 2.6246508,0.38060823 2.268,1 H 14 c 0.552285,0 1,0.4477153 1,1 v 7.12675 c 0.566235,0.232728 0.953056,-0.2353941 1,0.375 z"/><path d="m 5.8464245,11.318691 c -0.00142,-0.34524 0.2773459,-0.626239 0.6225855,-0.627569 l 3.4407545,-0.01372 -0.01372,-3.4407543 C 9.8927245,6.4032113 11.142879,6.3982313 11.1462,7.2316677 l 0.01372,3.4407543 3.440754,-0.01372 c 0.833436,-0.0033 0.838436,1.246822 0.005,1.250155 l -3.440755,0.01372 0.01372,3.440755 c 0.0033,0.833437 -1.2468222,0.838437 -1.2501555,0.005 l -0.01372,-3.440754 -3.4407538,0.01372 c -0.3452542,0.0014 -0.6262666,-0.277353 -0.6275852,-0.622607 z"/></svg>