<?xml version="1.0" encoding="UTF-8" standalone="no"?>
<svg
   width="24"
   height="24"
   viewBox="0 0 48 48"
   fill="none"
   version="1.1"
   id="svg6"
   sodipodi:docname="bookmark.svg"
   inkscape:version="1.2.2 (732a01da63, 2022-12-09)"
   xmlns:inkscape="http://www.inkscape.org/namespaces/inkscape"
   xmlns:sodipodi="http://sodipodi.sourceforge.net/DTD/sodipodi-0.dtd"
   xmlns="http://www.w3.org/2000/svg"
   xmlns:svg="http://www.w3.org/2000/svg">
  <defs
     id="defs10" />
  <sodipodi:namedview
     id="namedview8"
     pagecolor="#505050"
     bordercolor="#eeeeee"
     borderopacity="1"
     inkscape:pageshadow="0"
     inkscape:pageopacity="0"
     inkscape:pagecheckerboard="0"
     showgrid="false"
     inkscape:zoom="15.615275"
     inkscape:cx="6.307926"
     inkscape:cy="8.2611416"
     inkscape:window-width="1303"
     inkscape:window-height="745"
     inkscape:window-x="-8"
     inkscape:window-y="-8"
     inkscape:window-maximized="1"
     inkscape:current-layer="svg6"
     inkscape:showpageshadow="0"
     inkscape:deskcolor="#505050" />
  <rect
     width="48"
     height="48"
     fill="white"
     fill-opacity="0"
     id="rect2" />
  <g
     id="path4">
    <path
       style="color:#000000;fill:context-fill;stroke-width:3.79916;stroke-linecap:round;stroke-linejoin:round;-inkscape-stroke:none"
       d="M 13.633728,3.2019273 C 6.0609545,3.0738476 1.7541647,12.75371 3.1373551,19.195082 5.6989495,31.124158 17.247458,38.894857 24.060966,42.826409 30.999564,39.022937 42.166822,31.252238 44.600337,19.323162 45.917201,12.867903 43.498093,3.4499386 34.883045,3.2019273 33.174098,3.1527299 31.108738,3.0797467 29.306561,4.1360142 27.081545,5.4401112 25.062406,8.2962267 23.932886,9.99 21.888499,6.9243359 17.453812,3.2665371 13.633728,3.2019273 Z"
       id="path388" />
    <path
       style="color:#000000;fill:context-fill;stroke-linecap:round;stroke-linejoin:round;-inkscape-stroke:none"
       d="M 13.666016,1.3027344 C 9.0645162,1.2249084 4.6673253,4.1673316 2.5812734,7.7851562 0.49522155,11.402981 -0.33785798,15.786418 0.47971095,19.59375 3.2518002,32.503079 16.164138,40.463966 23.111328,44.472656 23.686359,44.804235 24.392145,44.811453 24.974,44.492 32.115557,40.577276 44.632755,32.589066 47.261469,19.703125 48.001599,16.075013 47.722872,11.782177 45.982173,8.1191406 44.241473,4.4561039 39.931254,1.4464953 34.9375,1.3027344 33.238565,1.2538252 30.727039,1.1023306 28.345703,2.4980469 26.399105,3.6389612 24.99468,5.3243437 23.837891,6.8964844 22.872124,5.834471 21.795986,4.807459 20.546875,3.921875 18.506366,2.4752126 16.169662,1.345079 13.666016,1.3027344 Z m -0.06445,3.7988281 c 1.316433,0.022265 3.105098,0.7531659 4.748046,1.9179687 1.642949,1.1648029 3.138037,2.7279497 4.001953,4.0234378 0.751896,1.128658 2.410214,1.128658 3.16211,0 C 26.610317,9.3984936 28.6539,6.7211781 30.267578,5.7753906 31.490593,5.058574 33.109169,5.052077 34.828125,5.1015625 38.449411,5.2058126 41.257135,7.0282434 42.550532,9.75 c 1.293397,2.721757 1.565014,6.366219 0.988281,9.193359 C 41.393006,29.462094 30.817027,36.739178 24.072266,40.583984 17.348491,36.592948 6.4475502,29.288839 4.1945546,18.796875 3.6289345,16.162842 4.2575539,12.484017 5.872289,9.6835938 7.4870242,6.8831705 10.630296,5.0513089 13.601563,5.1015625 Z"
       id="path390"
       sodipodi:nodetypes="sssccsssscssssccsssscssss" />
  </g>
</svg>
