<!DOCTYPE svg PUBLIC "-//W3C//DTD SVG 1.1//EN" "http://www.w3.org/Graphics/SVG/1.1/DTD/svg11.dtd">
<!-- Uploaded to: SVG Repo, www.svgrepo.com, Transformed by: SVG Repo Mixer Tools -->
<svg fill="context-fill" width="64px" height="64px" viewBox="0 0 24 24" xmlns="http://www.w3.org/2000/svg">
<g id="SVGRepo_bgCarrier" stroke-width="0"/>
<g id="SVGRepo_tracerCarrier" stroke-linecap="round" stroke-linejoin="round"/>
<g id="SVGRepo_iconCarrier">
<path d="M20 2H8c-1.103 0-2 .897-2 2v12c0 1.103.897 2 2 2h12c1.103 0 2-.897 2-2V4c0-1.103-.897-2-2-2zM8 16V4h12l.002 12H8z"/>
<path d="M4 8H2v12c0 1.103.897 2 2 2h12v-2H4V8zm8.933 3.519-1.726-1.726-1.414 1.414 3.274 3.274 5.702-6.84-1.538-1.282z"/>
</g>
</svg>