<svg fill="none" height="24" viewBox="0 0 24 24" width="24" xmlns="http://www.w3.org/2000/svg"><g fill="context-fill"><path d="m8.35607 17.0075c.41005.0586.69498.4385.6364.8486-.13491.9443-.40257 1.8104-.63246 2.4344-.11561.3138-.22329.5707-.3029.7509-.03985.0902-.07277.1614-.09629.2112-.01176.0248-.02118.0444-.02795.0583l-.00813.0166-.0025.0051-.00085.0017-.00045.0009s-.00012.0002-.67094-.3352l.67094.3352c-.18524.3705-.63587.5209-1.00635.3356-.37027-.1851-.52048-.6352-.33574-1.0056l.00072-.0014.00453-.0093c.00434-.0089.01127-.0233.02051-.0428.01847-.0391.04609-.0987.08047-.1765.06883-.1558.16427-.3833.26741-.6632.20761-.5635.43996-1.3224.55505-2.1281.05858-.41.43848-.6949.84853-.6364z"/><path d="m10.9127 18.0179c.4043.0898.6593.4904.5694.8948l-.5 2.25c-.0898.4043-.4904.6593-.8948.5694-.40435-.0898-.6593-.4904-.56944-.8948l.50004-2.25c.0898-.4043.4904-.6593.8948-.5694z"/><path d="m18 13h-12v-1.5h12z"/><path d="m12 2c-1.3807 0-2.5 1.11929-2.5 2.5v3h-2.38827c-1.17371 0-2.07688.99324-2.03955 2.13137.04238 1.29193.04444 3.35573-.21741 5.48293-.26433 2.1474-.78711 4.2642-1.73445 5.7283-.14926.2306-.16044.5245-.02914.7658.13131.2414.38407.3916.65882.3916h11.7751l-1.0125-1.0126c-.1459-.1458-.2607-.3111-.3443-.4874h-9.15858c.72215-1.5743 1.11745-3.4447 1.33381-5.2024.27492-2.2334.27158-4.382.22784-5.71541-.01069-.32603.24911-.58219.54036-.58219h3.13827c.4142 0 .75-.33579.75-.75v-3.75c0-.55228.4477-1 1-1s1 .44772 1 1v3.75c0 .41421.3358.75.75.75h3c.4142 0 .75.33579.75.75v4.443c.2397-.1233.5116-.193.7998-.193.249 0 .4858.052.7002.1457v-4.3957c0-1.24264-1.0074-2.25-2.25-2.25h-2.25v-3c0-1.38071-1.1193-2.5-2.5-2.5z"/><path d="m16.2803 19.2197c-.2929-.2929-.7677-.2929-1.0606 0s-.2929.7677 0 1.0606l2.5 2.5c.1406.1407.3314.2197.5303.2197s.3897-.079.5303-.2197l2.5-2.5c.2929-.2929.2929-.7677 0-1.0606s-.7678-.2929-1.0606 0l-1.1699 1.1698v-4.6395c0-.4142-.3358-.75-.75-.75s-.75.3358-.75.75v4.7392z"/></g></svg>