<?xml version="1.0" encoding="utf-8"?><!-- Uploaded to: SVG Repo, www.svgrepo.com, Generator: SVG Repo Mixer Tools -->
<svg width="800px" height="800px" viewBox="0 0 24 24" fill="none" xmlns="http://www.w3.org/2000/svg">
<path fill-rule="evenodd" clip-rule="evenodd" d="M 0.10069594,3.9219319 C 0.01759798,4.362357 0.01759798,4.8911045 0.01759798,5.9485874 v 2.756252 H 23.926205 C 23.839692,7.4480892 23.619695,6.6232086 23.060356,6.0014058 22.975641,5.9071163 22.885892,5.8173681 22.791591,5.7325567 21.766377,4.8105588 20.189373,4.8105588 17.035125,4.8105588 h -0.447782 c -1.38241,0 -2.073555,0 -2.717609,-0.1835944 C 13.515894,4.5260966 13.174755,4.384836 12.853267,4.2059627 12.268046,3.880329 11.779284,3.3915788 10.80176,2.4140784 L 10.142368,1.7547467 C 9.8147693,1.4271239 9.6509699,1.2633005 9.4788307,1.1205901 8.7366168,0.50532967 7.82611,0.12818357 6.8662237,0.0384234 6.6435787,0.01759798 6.411911,0.01759798 5.9485874,0.01759798 c -1.0574829,0 -1.5862304,0 -2.0266555,0.08309796 C 1.9830834,0.46650669 0.46650669,1.9830834 0.10069594,3.9219319 Z M 23.979766,10.5022 H 0.01759798 v 3.89428 c 0,4.518804 0,6.778325 1.40382232,8.182064 1.4038342,1.403858 3.6632479,1.403858 8.1820993,1.403858 H 14.39648 c 4.518804,0 6.778325,0 8.182064,-1.403858 1.403858,-1.403739 1.403858,-3.66326 1.403858,-8.182064 v -2.638644 c 0,-0.44958 -0.0026,-1.255636 -0.0026,-1.255636 z" fill="context-fill"/>
</svg>