<?xml version="1.0" encoding="utf-8"?><!-- Uploaded to: SVG Repo, www.svgrepo.com, Generator: SVG Repo Mixer Tools -->
<svg width="800px" height="800px" viewBox="0 0 24 24" fill="none" xmlns="http://www.w3.org/2000/svg">
<path d="m 16.439482,9.5457883 c 1.668723,-5.99e-5 3.090558,-1.198e-4 4.225592,0.1224362 0.192666,0.020849 0.384704,0.045893 0.575236,0.076448 0.667866,0.1070028 1.318411,0.2821855 1.920256,0.5853405 V 9.3108972 c 0,-1.0891044 1.25e-4,-1.9926734 -0.107065,-2.7130914 C 22.940538,5.8374984 22.694151,5.1635362 22.105235,4.6097935 22.009215,4.5194702 21.9078,4.4337361 21.801614,4.3529148 21.159227,3.8642245 20.389192,3.664382 19.517489,3.5716741 18.677667,3.4823693 17.619701,3.4823932 16.322878,3.4824052 h -0.442817 c -1.232684,0 -1.674623,-0.00684 -2.074891,-0.1033482 C 13.570081,3.322368 13.344404,3.2432005 13.13266,3.1435429 12.775821,2.9756575 12.46492,2.7227569 11.591836,1.9842934 L 10.99677,1.4809846 C 10.746995,1.269627 10.576419,1.1253709 10.393669,0.99721909 9.6095757,0.44751441 8.6549332,0.1150387 7.655406,0.03597881 7.4226633,0.01757384 7.185151,0.01758582 6.829642,0.01762177 L 6.6835173,0.01760978 C 5.8793795,0.01747798 5.3486765,0.0173941 4.8878728,0.0909301 2.8735432,0.412382 1.2446707,1.7567596 0.8479299,3.5353315 0.75765946,3.9399652 0.75779752,4.4035764 0.75801089,5.0724101 l 2.514e-5,5.2576029 C 1.3598811,10.026858 2.0104762,9.851675 2.6782542,9.7446722 2.8688616,9.7141171 3.060862,9.6890738 3.2535403,9.6682245 4.3885485,9.5456685 5.8104466,9.5457284 7.4791451,9.5457883 Z" fill="context-fill"/>
<path fill-rule="evenodd" clip-rule="evenodd" d="m 0.48463896,12.933189 c -0.76588076,1.128024 -0.44978348,2.69652 0.18239862,5.833393 0.45508012,2.258204 0.68262652,3.387305 1.47103722,4.136565 0.204552,0.194355 0.4334163,0.366662 0.6820116,0.513446 0.9581197,0.565809 2.2301402,0.565809 4.7741812,0.565809 h 8.7301164 c 2.544067,0 3.816162,0 4.774219,-0.565809 0.248646,-0.146784 0.47746,-0.319091 0.68205,-0.513446 0.78836,-0.74926 1.015919,-1.878361 1.471036,-4.136565 0.632095,-3.136873 0.948268,-4.705369 0.182374,-5.833393 C 23.238636,12.645372 22.997522,12.384755 22.718627,12.159845 21.625391,11.27818 19.858388,11.27818 16.324384,11.27818 H 7.5942676 c -3.5340039,0 -5.3009933,0 -6.3941799,0.881665 -0.27896992,0.22491 -0.51999655,0.485527 -0.71544874,0.773344 z m 7.95423244,5.274534 c 0,-0.478338 0.4297889,-0.866208 0.9600906,-0.866208 h 5.12064 c 0.530176,0 0.960065,0.38787 0.960065,0.866208 0,0.478457 -0.429889,0.866208 -0.960065,0.866208 h -5.12064 c -0.5303017,0 -0.9600906,-0.387751 -0.9600906,-0.866208 z" fill="context-fill"/>
</svg>