<?xml version="1.0" encoding="UTF-8" standalone="no"?>
<!-- Uploaded to: SVG Repo, www.svgrepo.com, Generator: SVG Repo Mixer Tools -->

<svg
   width="30.129778"
   height="30.824539"
   viewBox="0 0 209.40195 214.23055"
   version="1.1"
   id="svg1"
   xmlns="http://www.w3.org/2000/svg"
   xmlns:svg="http://www.w3.org/2000/svg">
  <defs
     id="defs1" />
  <path
     fill="context-fill"
     d="m 201.88912,71.874153 c -4.83926,-11.518239 -14.15783,-23.116465 -21.79666,-27.195842 -1.23742,-0.714422 -2.76198,-0.714422 -3.99939,0 -1.1921,0.799434 -1.803,2.224864 -1.55976,3.639444 -3.19952,-3.999389 -6.51901,-7.678826 -9.91849,-11.478245 -7.31669,-7.764966 -13.99093,-16.111107 -19.95694,-24.956182 l -2.27965,-3.7194317 c -0.75988,-1.2798042 -0.71989,-1.2798042 -0.99985,-1.8397187 -0.49787,-0.9856096 -0.89968,-2.0168803 -1.19982,-3.0795292 -0.3027,-1.6252875 -1.57422,-2.89681128 -3.19951,-3.19951067 -0.41107,-0.06018364 -0.82873,-0.06018364 -1.23981,0 -0.54738,0.05107253 -1.07835,0.21444872 -1.55976,0.47992657 C 117.29659,14.127462 114.77811,16.624704 101.18887,34.016131 90.519185,49.50101 85.271604,60.290032 86.666746,63.515431 c 0.804001,1.86919 2.984332,2.716097 4.83926,1.879713 2.417095,-1.031192 4.958006,-1.743722 7.558844,-2.119677 3.07751,-0.157623 6.16107,-0.157623 9.23859,0 h 2.79957 c 0.91986,0 1.83972,0.279958 2.71958,0.479927 h 0.51992 l 2.23966,0.519921 0.75988,0.199969 2.23966,0.679896 h 0.43994 c 0.87986,0.279957 1.71973,0.639901 2.5596,0.959854 l 0.6799,0.279956 1.9197,0.919859 0.71989,0.319951 c 0.79989,0.439933 1.63976,0.839872 2.39963,1.319799 l 2.99955,1.879712 2.19966,1.599756 2.11968,1.75973 1.47977,1.359792 -1.59976,-0.319951 h -9.83849 l -1.63974,0.239964 c -1.30074,0.195366 -2.42225,1.017808 -2.99955,2.199664 -0.74694,1.779624 0.0252,3.832857 1.75973,4.679284 7.63156,3.983091 13.64723,10.487472 17.02331,18.4063 3.37607,7.91884 3.90397,16.76285 1.49386,25.02706 -0.30697,1.20634 -0.68082,2.39466 -1.11983,3.55946 -0.39994,1.09316 -0.83987,2.133 -1.31979,3.11952 v 0.31995 c -0.46092,0.93684 -0.95448,1.85726 -1.47978,2.75958 l -0.23996,0.35994 c -0.49993,0.85647 -1.04737,1.68429 -1.63976,2.47962 l -0.23996,0.35995 c -0.5915,0.75113 -1.205,1.48467 -1.83971,2.19965 l -0.27996,0.31996 c -0.6227,0.69581 -1.2766,1.36306 -1.9597,1.9997 l -0.31995,0.27996 -2.43963,1.99968 c -0.71988,0.51993 -1.47977,1.07984 -2.23966,1.55977 h -0.31995 c -0.7723,0.5003 -1.57358,0.95435 -2.39963,1.35979 h -0.23996 c -0.83376,0.44019 -1.68791,0.84058 -2.55961,1.19982 l -2.71959,0.99985 -2.91955,0.87985 -2.67959,0.59991 h -0.27996 l -2.63959,0.39994 h -0.35995 c -0.83987,0 -1.71974,0 -2.55961,0.23997 h -5.27919 c -4.090778,-0.15653 -8.13504,-0.92495 -11.998165,-2.27965 -0.932222,-0.34207 -1.852605,-0.71555 -2.759579,-1.11983 l -1.519767,-0.71989 C 73.31156,143.10842 65.169218,132.16715 63.190337,119.42688 c 0.999846,-2.6396 6.838954,-14.07785 29.715454,-14.07785 4.839261,0 14.477789,-9.278577 15.677599,-13.837881 V 90.39132 c 0,-2.439626 -1.39978,-3.079528 -6.75896,-5.679131 C 95.072869,81.780905 88.728043,77.990141 82.947315,73.433913 l -1.079835,-1.03984 c -0.479927,-0.51992 -0.959853,-0.959853 -1.359792,-1.359792 l -1.199817,-1.159823 c -0.711223,-1.160007 -1.586864,-2.210778 -2.599602,-3.119523 -0.885884,-0.754737 -1.821154,-1.44951 -2.799572,-2.079681 -1.670628,-6.777517 -1.670628,-13.859329 0,-20.636845 0.537826,-1.718017 -0.261216,-3.571106 -1.879713,-4.359332 -1.05425,-0.480879 -2.265241,-0.480879 -3.319491,0 -8.027573,3.780297 -15.303952,8.983517 -21.476716,15.35765 -1.053723,-6.044991 -1.416,-12.190271 -1.079835,-18.317197 0.06137,-0.343899 0.06137,-0.695944 0,-1.039841 -0.27295,-1.19169 -1.108323,-2.176235 -2.239658,-2.639597 -0.959853,-0.359945 -2.279651,-0.879866 -6.838954,2.199664 -3.717754,2.6367 -7.19721,5.594235 -10.39841,8.838648 -3.597975,3.64153 -6.888685,7.574328 -9.838495,11.758201 C 10.067103,65.37779 5.2675556,76.173375 2.7195841,87.591749 v 0.71989 C 2.3144961,90.501688 1.9677594,92.702131 1.6797431,94.91063 0.7911922,99.652376 0.22995243,104.44964 0,109.26843 v 0.51992 c 0.12542962,26.22378 10.064444,51.45036 27.859921,70.71231 17.795481,19.26195 42.157771,31.16333 68.289627,33.36064 26.131852,2.1973 52.139472,-5.46871 72.901632,-21.48853 20.76215,-16.01983 34.77419,-39.23248 39.27696,-65.0671 0,-0.95985 0.23996,-1.9197 0.35994,-2.91955 v -0.99985 c 2.03624,-17.4688 -0.30008,-35.169837 -6.79896,-51.512117 z M 133.61957,10.843487 v -0.319952 c -0.0115,-0.07958 -0.0115,-0.160387 0,-0.239963 0.23996,0.439933 0.47992,0.919859 0.79988,1.43978 0.79988,1.359792 1.59975,2.639597 2.43962,3.999388 6.10425,9.197484 12.95284,17.878618 20.47686,25.95603 13.90194,14.391591 31.83946,27.921582 27.78376,49.472434 -0.0814,0.432342 0,1.63975 -0.27996,2.439627 0,0 -0.58791,3.639443 -0.82787,4.799266 -0.23996,1.199817 -0.55992,2.359643 -0.87987,3.519463 l -0.35995,1.11983 c -0.23996,0.79988 -0.51992,1.59975 -0.79986,2.39963 -0.27996,0.79988 -0.27996,0.83987 -0.43994,1.23981 l -0.87987,2.27965 c -0.14902,0.39705 -0.32267,0.7844 -0.51992,1.15983 -0.39994,0.91985 -0.83987,1.79972 -1.27981,2.67959 l -0.35993,0.71989 c -0.58741,1.14129 -1.21436,2.2618 -1.87972,3.35948 l -0.51992,0.79988 -1.59975,2.47962 c -0.55992,0.79988 -0.51992,0.71989 -0.75989,1.11983 0,0 -8.61757,10.52965 -16.76957,16.68043 -13.91529,10.49925 -22.52135,12.45009 -16.72115,6.57517 5.5852,-5.65713 7.35468,-14.21617 9.25162,-24.01259 1.46851,-7.58387 -2.62685,-24.534483 -7.41689,-30.121374 -17.19706,-20.057871 49.55213,25.107814 0.88513,-19.876335 -4.86006,-3.59453 -14.23834,-11.350997 -28.22828,-14.13893 C 100.60266,53.556801 94.767047,58.74726 95.937592,56.356893 100.95639,46.108017 120.79207,19.89962 133.61957,10.843487 Z m -39.473968,87.106677 -1.479773,0.999848 h -4.599297 l -3.119523,0.279957 h -0.279957 c -1.079835,0 -2.079682,0.319951 -3.119523,0.479926 h -0.71989 l -2.519614,0.559915 h -0.399939 c -0.919859,0.23996 -1.759731,0.51992 -2.599603,0.79988 h -0.599908 c -0.69097,0.22251 -1.371558,0.47606 -2.039688,0.75988 h -0.399939 c -0.734228,0.3014 -1.454818,0.635 -2.159669,0.99985 l -0.479927,0.23996 -1.599756,0.87987 -0.399939,0.23996 -2.079682,1.35979 -1.279804,0.99985 -0.319951,0.27996 c -0.479927,0.35994 -0.919859,0.75988 -1.359792,1.15982 l -1.519767,1.51977 -0.999848,1.15982 c -0.279957,0.31995 -0.51992,0.6799 -0.759883,0.99985 l -0.19997,0.27995 -0.71989,1.03985 -0.51992,0.87986 v -1.91971 c 0.01955,-0.10575 0.01955,-0.21419 0,-0.31995 v -5.91909 c 0.129808,-1.03612 -0.207176,-2.07637 -0.91986,-2.83957 -0.680699,-0.79229 -1.675051,-1.2456 -2.719583,-1.23981 -7.632318,0.20141 -14.828777,-3.548012 -19.03709,-9.918481 9.763143,-4.510866 21.045538,-4.349059 30.675309,0.439932 l 2.039689,0.879866 0.759884,0.319951 1.279804,0.479927 0.879866,0.319951 1.119828,0.359945 0.919859,0.279957 1.079835,0.319951 0.919859,0.239964 1.039842,0.239963 h 0.919859 l 0.999847,0.239962 H 95.065461 Z M 65.629963,50.437431 c -0.376131,3.643091 -0.376131,7.315233 0,10.958324 H 65.429994 L 62.990366,60.635871 H 62.550435 C 61.710563,60.395907 60.870691,60.235932 60.03082,60.035962 h -0.319952 c -1.687093,-0.446091 -3.395685,-0.806496 -5.119216,-1.079835 3.386538,-3.20011 7.08434,-6.053849 11.038311,-8.518696 z M 8.0787645,112.30797 c -0.4621937,-3.24982 -0.4621937,-6.54869 0,-9.7985 0.2399633,-1.9997 0.5599143,-3.999391 0.8798655,-5.519159 -0.018711,-0.07889 -0.018711,-0.161071 0,-0.239963 v -0.239964 c 0,-0.959852 0.7998776,-5.239198 0.9598532,-5.959088 V 89.911394 C 12.267478,79.507321 16.643503,69.668058 22.796514,60.955822 l 0.239963,-0.359945 c 2.691116,-3.784485 5.687318,-7.342473 8.95863,-10.638373 2.158826,-2.198103 4.45653,-4.255353 6.878948,-6.159059 0,6.718974 0.91986,16.477481 4.399327,20.836815 0.219702,0.312831 0.506683,0.572484 0.839872,0.759884 l 0.399939,0.239963 c 0.260812,0.09823 0.528067,0.178404 0.799877,0.239963 h 6.479009 c 5.161095,0.154608 10.225684,1.43782 14.837731,3.759425 0.684408,0.412284 1.351537,0.852589 1.999695,1.319798 0.812495,0.518272 1.587617,1.092929 2.319644,1.719737 1.279805,1.079834 2.839566,2.599602 5.679133,5.399174 l 1.079835,1.039842 1.839717,1.639749 c 0.519921,0.399939 1.039842,0.839871 1.63975,1.23981 l 0.319951,0.239963 1.599756,1.119829 h 0.359945 c 0.599908,0.439933 1.23981,0.799878 1.879711,1.199816 l 0.479927,0.319952 1.959701,1.119828 2.359639,1.319799 1.959701,0.999847 0.359945,0.239962 1.799724,0.879866 h -9.598532 c -1.039841,0 -2.119676,0 -3.199511,-0.319951 H 79.187889 L 78.148048,88.871552 H 77.468153 L 76.428312,88.631589 75.748416,88.431621 74.708575,88.151662 73.988685,87.9117 72.668887,88.23165 C 72.434391,88.175991 72.206478,88.095552 71.98899,87.991688 L 70.789175,87.551755 70.22926,87.311792 68.669499,86.551908 c -13.024445,-6.568816 -28.531418,-5.871534 -40.913744,1.839719 -1.386224,0.961872 -1.918279,2.757557 -1.279803,4.319339 4.2597,9.439574 13.183838,15.931234 23.476409,17.077384 -0.519921,18.79713 11.078306,36.35444 30.27537,45.47304 l 1.319798,0.6799 h 0.199969 c 8.83958,4.76358 18.755712,7.17375 28.795602,6.99893 h 0.83987 c 10.77052,-0.18685 21.38806,-2.58261 31.19522,-7.03892 l 0.71989,-0.31995 2.55962,-1.19981 1.35978,-0.71989 2.07969,-1.07984 3.51946,-2.03969 3.59945,-2.31965 3.63945,-2.5596 c 1.24569,-0.92136 2.47242,-1.86808 3.67943,-2.83957 l 0.39993,-0.43993 c 1.07984,-0.87987 2.11969,-1.75974 3.11954,-2.67959 l 0.67988,-0.6399 c 1.07984,-0.99985 2.11969,-1.9997 3.11954,-3.03954 l 0.47991,-0.43993 3.11954,-3.43947 c 0.95984,-1.07984 1.83971,-2.15968 2.71958,-3.2795 0.16114,-0.22291 0.33472,-0.43654 0.51992,-0.6399 0.83986,-1.11984 1.67974,-2.27965 2.43962,-3.39948 0.0851,-0.23618 0.1922,-0.46381 0.31995,-0.6799 l 2.19966,-3.43948 v -0.31995 c 0.7199,-1.19982 1.39979,-2.43962 2.0397,-3.63944 0,-0.19997 0,-0.39994 0.31995,-0.55992 0.5999,-1.2398 1.2398,-2.51961 1.75972,-3.75942 v -0.27996 c -2.37008,4.95682 15.97246,-19.311291 -3.13955,-54.242262 -2.06332,-3.771122 11.66845,20.835166 11.84943,22.014789 0.73501,4.79062 13.06462,31.257463 -0.43811,62.798633 C 183.03693,177.65873 146.21776,207.55857 95.048893,204.4469 49.44789,201.25524 21.069176,161.60486 10.782525,133.37041 Z"
     id="path1"
     style="stroke-width:0.0399939" />
</svg>
