<?xml version="1.0" encoding="UTF-8" standalone="no"?>
<svg
   xmlns:dc="http://purl.org/dc/elements/1.1/"
   xmlns:cc="http://creativecommons.org/ns#"
   xmlns:rdf="http://www.w3.org/1999/02/22-rdf-syntax-ns#"
   xmlns:svg="http://www.w3.org/2000/svg"
   xmlns="http://www.w3.org/2000/svg"
   xmlns:sodipodi="http://sodipodi.sourceforge.net/DTD/sodipodi-0.dtd"
   xmlns:inkscape="http://www.inkscape.org/namespaces/inkscape"
   height="2500"
   viewBox="78.7 70 353.3 367.3"
   width="2309"
   version="1.1"
   id="svg9"
   sodipodi:docname="foxlogo.svg"
   inkscape:version="1.0.2-2 (e86c870879, 2021-01-15)">
  <metadata
     id="metadata15">
    <rdf:RDF>
      <cc:Work
         rdf:about="">
        <dc:format>image/svg+xml</dc:format>
        <dc:type
           rdf:resource="http://purl.org/dc/dcmitype/StillImage" />
        <dc:title></dc:title>
      </cc:Work>
    </rdf:RDF>
  </metadata>
  <defs
     id="defs13" />
  <sodipodi:namedview
     pagecolor="#ffffff"
     bordercolor="#666666"
     borderopacity="1"
     objecttolerance="10"
     gridtolerance="10"
     guidetolerance="10"
     inkscape:pageopacity="0"
     inkscape:pageshadow="2"
     inkscape:window-width="1350"
     inkscape:window-height="670"
     id="namedview11"
     showgrid="false"
     inkscape:zoom="0.15499781"
     inkscape:cx="869.44804"
     inkscape:cy="1397.7312"
     inkscape:window-x="-6"
     inkscape:window-y="32"
     inkscape:window-maximized="0"
     inkscape:current-layer="svg9" />
  <linearGradient
     id="a"
     gradientUnits="userSpaceOnUse"
     x1="132.685"
     x2="377.492"
     y1="383.414"
     y2="138.607">
    <stop
       offset="0"
       stop-color="#e71c7e"
       id="stop2" />
    <stop
       offset="1"
       stop-color="#ff8d42"
       id="stop4"
       style="stop-color:#0060bf;stop-opacity:1" />
  </linearGradient>
  <path
     d="m417.7 191.3c-7.5-16.8-17.5-31.7-32.7-42.5-6.6-4.7-9.4-4-13.7 2.9-11.6-13.5-23.5-26.9-34.7-40.6-8.1-9.9-15.9-20.1-20.9-32.1-3.1-7.6-6.5-9-13.6-4.6-12.9 7.9-23.9 17.9-32.9 30.2-13.1 17.8-22 37.4-25 59.5-.4 1.9-2 1.8-3.5 2.2-4 1.1-7.9 2.3-11.8 3.7-3.7 1.3-5.2 4.2-4 7.9 1.2 3.9 4.5 5.3 7.9 3.9 10.8-4.7 24.3-4.7 33.3-3.6 1.1.3 2.2.7 3.3.9 14.6 2.9 27.7 8.8 38.7 19l-.1.1c-1.6.9-3.6 1.4-5.1.8-4.1-1.6-8.2-.8-12.3-.7-3.4.1-6.7 1-7.6 5-.9 4.2 1.5 6.2 4.9 8.1 20.7 11.6 30.4 29.6 31.3 53 .4 10-2.2 19.4-5.3 28.7-4.1 6.8-7.8 13.9-13.9 19.2-17.8 15.5-38.8 20-61.1 15.5-26.5-5.4-44.4-21.6-52.4-47.9-1.5-5-.4-9 2.8-12.9 5-6.2 11.3-10.3 18.7-12.9 8.8-2.4 17.8-4.2 27-3.9 2 .1 3.9-.7 5.7-1.7 8.1-4.3 14.6-10.5 19.4-18.3 3.3-5.3 2.3-8.5-3-11.6-.7-.4-1.4-.9-2.2-1.2-19.4-8.2-36.5-19.6-50.7-35.2-.8-.9-.9-1.6-1.1-2.6-1.9-10.4-2-20.8.5-31.2.7-2.9.9-5.7-1.6-7.8-2.6-2.3-5.6-1.7-8.4-.4-7.7 3.7-14.9 8.1-21.5 13.5-4.2 3.4-8.3 7-12.5 10.5-1.4-1.8-1.3-3.7-1.5-5.5-.9-7.6-1.1-15.3-.9-22.9.2-6.7-4-9.3-10.2-6.6-.9.4-1.8.8-2.7 1.4-18.7 12.6-33.4 28.8-44.3 48.5-1 1.5-2 3-2.9 4.6-13.5 25.8-18.4 53.5-17.9 82.4.5 13 2.4 25.7 6 38.2 10.9 37.8 31.9 69.1 63.3 92.4 39.7 29.4 84.5 40.6 133.6 33.4 23.3-3.4 45-11.2 65-23.6 24.9-14.7 44.5-34.5 59.3-59.3 12.8-20.6 20.7-43 23.3-67.1.4-3.5.9-6.9 1.1-10.4 1.2-27.1-2-53.4-13.1-78.4zm-158.6-26.1c-3.7-.3-2.1-2.8-1.7-4.4 3.5-17.6 10.9-33.6 21.6-48 1.9-2.6 3-5.9 7.2-8.4-6.9 23.4-5.9 45.5 4.4 67.7-10.9-4.3-21.1-6.1-31.5-6.9zm35.1-32.9c.2-14.9 4.3-28.8 12.2-42.3 5.4 8.6 10.6 16.7 16.5 24.4 12.4 16.3 26.8 30.9 39.8 46.7 7.9 9.7 14.5 20.2 20.9 31 6.9 11.6 7.5 23.8 6.1 36.6-.3 2.8-.9 5.6-1.3 8.3-4.3 17.6-12.7 33-25.1 46.9 2.4-29.3-5.6-54.5-28.2-73.9-4.3-8.4-10.8-15.1-17.3-21.8-15.3-15.5-23.9-33.9-23.6-55.9zm30.6 165.7c12.6-23.3 8.5-58.8-9.1-79.8-1.1-1.3-2-2.6-2.9-4l.6-.6c13.9 3.9 22.8 13.7 29.3 25.9 10.3 19.2 9.2 39.1 3.7 59.3-.9 1.9-1.8 3.8-3.6 5.2-10.5 7.9-21.6 14.6-33.9 19.5-.7.3-1.5.4-3.7 1 9.2-8.1 15.7-16.4 19.6-26.5zm-126.8-53c-9.1 3.4-15.7 9.9-22.3 18.9 0-4.5-.1-7.6 0-10.6.3-7.2-1.3-8.9-8.2-9.4-10.8-.6-19.8-4.9-27.1-13-3.1-3.5-1.2-4.7 1.8-5.6l12-2.9c12.7-1.3 24.8 1.1 36.4 6.5 12.8 5.9 26.4 7.9 40.4 7.3 1.5-.1 3 0 4.6.5-12.9 1.5-26 1.6-37.6 8.3zm-8.9-87.7v14.7c0 1.8-.7 2.3-2.4 1.9-4.8-1.1-9.7-2.1-15.5-3.4 5.9-4.8 11-9.3 17.9-13.2zm-93.5 115.5c-3.9-13.5-3.3-27-1.2-40.8 2.6-16.6 8.4-31.7 15.9-46.5-.1-.2-.3-.5-.4-.7.1.2.3.4.4.7 8.4-13.1 17.4-25.6 29.4-35.7 1.2-1 2.1-2.6 4.4-2.7.6 5.6 1.2 11.1 1.9 16.7.3 2.1.7 4.3 1.2 6.4 2.9 11 4.7 12.5 16.1 12.7 16.8.3 31.2 5.5 42.6 18.4 8.3 9.4 19.3 15.2 30.3 20.9-4.8 2.1-13.3 2.4-22.7.6-6.9-1.3-13.5-3.4-19.9-6.3-16.2-7.3-33.3-9.2-50.6-4.5-5 1-11 4.1-15.5 6.7-5 2.9-5.9 5.8-3.2 10.8 7 13.1 17.6 22.1 32.3 25.3 4.7 1 6.2 2.4 6.5 7.4 1.7 28.3 16.5 49 39.7 63.9 37 23.8 75.7 23.7 115.2 7 12-5.1 23.3-11.7 33.5-20 2.6-2.1 5.1-4.5 7.6-6.8 9.8-7.5 17.3-17 24.1-27 5.8-8.5 10.6-17.6 14.3-28.8 1.1 8.6 0 15.7-.9 22.7-3.4 26-13.4 49.2-29.8 69.7l-7.8 8.2c-12.1 12.5-26.5 21.8-42.2 29.4-21.5 9-43.8 13.1-67.1 12.3-72.2-2.5-135.3-52.2-153.6-118.6-.1-.5-.3-.9-.5-1.4zm322.4-3.3c-.1 1.8 0 3.6-.1 5.5-2.3 18.2-6.9 35.7-15 52.2-2.1 4.3-4.4 8.5-6.6 12.8-15 24.7-35.2 44-60 58.7-15.6 8-31.7 14.5-49 17.8-67.1 12.9-134-15.6-170.6-72.8-.7-1.1-1.2-2.2-2.2-4 2.7.3 3.4 2 4.5 3.2 26.3 30 58.8 49.5 97.7 58.3 34.1 7.7 67.6 5.3 100.2-7.3 3.2-1.2 5-1.9 9-3.9 2-1 2-1.1 2.9-1.5 19.5-9.7 35.9-23.3 49.4-40.4 13.9-16.2 22.4-35.2 27.5-55.7 3.7-14.9 5.7-30 4.8-45.4-.3-10.8-1.8-21.4-4.8-31.8-3.1-10.8-5.6-21.9-7.9-33 5.5 7.1 9.2 15.1 12 23.5 7.2 20.7 9.4 42 8.2 63.8z"
     fill="url(#a)"
     id="path7" />
</svg>
