<?xml version="1.0" encoding="utf-8"?>
<!-- Uploaded to: SVG Repo, www.svgrepo.com, Generator: SVG Repo Mixer Tools -->
<svg width="800px" height="800px" viewBox="0 0 24 24" xmlns="http://www.w3.org/2000/svg">
    <g id="g6" transform="matrix(1.1903241,0,0,1.1903241,-2.2838888,-2.2838888)">
        <path fill="none" d="M0 0h24v24H0z"/>
        <path fill="context-fill" d="M 12,2 C 17.523,2 22,6.477 22,12 22,17.523 17.523,22 12,22 6.477,22 2,17.523 2,12 2,10.536 2.314,9.146 2.88,7.894 3.346,6.955 4.113,6.02 4.73,5.7 4.077,6.983 3.757,8.24 3.69,9.083 4.144,7.583 5.005,6.326 6.21,5.439 8.276,3.92 11.058,3.852 12.166,4.819 10.11,5.526 7.87,8.367 8.363,11.695 c 0.08,0.55 0.245,1.084 0.489,1.582 -0.384,-1.01 -0.418,-2.433 0.202,-3.358 0.692,-1.03 1.678,-1.248 2.206,-1.136 -0.208,-0.044 -0.668,0.836 -0.736,0.991 -0.173,0.394 -0.259,0.82 -0.251,1.25 a 3.395,3.395 0 0 0 1.03,2.38 c 1.922,1.871 5.023,1.135 6.412,-1.002 C 18.668,10.931 18.784,8.434 17.56,6.45 A 6.915,6.915 0 0 0 16.476,5.13 C 14.626,3.364 11.996,2.56 9.494,2.925 8.388,3.102 7.447,3.421 6.67,3.881 7.755,2.798 9.91,2 12,2 Z M 6.875,7.705 c -2.253,0.781 -3.501,3.17 -2.579,6.46 a 8.004,8.004 0 0 0 7.455,5.831 L 12,20 a 8,8 0 0 0 7.985,-7.504 l 0.009,-0.212 c -0.13,0.349 -0.283,0.674 -0.463,0.98 l -0.14,0.227 c -2.104,3.239 -6.681,4.075 -9.48,1.348 A 5.392,5.392 0 0 1 8.949,13.582 L 8.843,13.381 C 7.107,12.994 6.259,12.055 6.3,10.564 6.327,9.573 6.53,8.604 6.875,7.704 Z"/>
    </g>
</svg>