<?xml version="1.0" encoding="UTF-8" standalone="no"?>
<!-- This Source Code Form is subject to the terms of the Mozilla Public
   - License, v. 2.0. If a copy of the MPL was not distributed with this
   - file, You can obtain one at http://mozilla.org/MPL/2.0/. -->

<svg
   viewBox="0 0 15.038675 15.015055"
   width="15.038675"
   height="15.015055"
   fill="context-fill"
   fill-opacity="context-fill-opacity"
   version="1.1"
   id="svg1"
   xmlns="http://www.w3.org/2000/svg"
   xmlns:svg="http://www.w3.org/2000/svg">
  <defs
     id="defs1" />
  <path
     d="M 14.854726,6.5220548 8.8897265,0.55705484 c -0.7479305,-0.74273978 -1.9550695,-0.74273978 -2.703,0 l -5.966,5.96499996 c -0.61933304,0.5446664 0.19766696,1.4736664 0.817,0.929 v 5.5640002 c 0,1.104569 0.8954305,2 2,2 h 8.9999995 c 1.104569,0 2,-0.895431 2,-2 V 7.4510548 c 0.106214,0.086484 0.238078,0.1353612 0.375,0.139 0.55664,-0.00115 0.835029,-0.6738203 0.442,-1.068 z M 8.7877265,13.765055 h -2.5 z m 3.9999995,-0.581 -0.6,0.581 H 2.8877265 l -0.6,-0.581 -0.001,-6.9600002 4.783,-4.783 c 0.2587308,-0.2578371 0.6772692,-0.2578371 0.936,0 l 4.7819995,4.784 z"
     id="path1" />
</svg>
