<svg width="16" height="16" xmlns="http://www.w3.org/2000/svg"><g fill="context-fill" fill-opacity="context-fill-opacity" fill-rule="nonzero"><path d="M11 6.1c-.2-.2-.6-.2-.8 0-.2.2-.2.6 0 .8l1 1.1H4.8l1-1.1c.2-.2.2-.6 0-.8-.2-.2-.6-.2-.8 0l-1.9 2c-.2.2-.2.6 0 .8L5 10.8c.2.2.6.2.8 0 .2-.2.2-.6 0-.8l-1-1h6.4l-1 1.1c-.2.2-.2.6 0 .8.2.2.6.2.8 0L12.9 9c.2-.2.2-.6 0-.8L11 6.1z"/><path d="M 13.4,1 H 2.6 C 0.9,1 0,2 0,3.6 v 8.8 c 0,1.7 1.3,2.5 3,2.5 h 10 c 1.7,0 3,-0.8 3,-2.5 V 3.6 C 16,2 15,1 13.4,1 Z m 1.4,11.6 c 0,0.6 -0.4,1 -1,1 H 8 V 10 H 7 v 3.6 H 2.3 c -0.6,0 -1,-0.4 -1,-1 V 3.4 c 0,-0.6 0.4,-1 1,-1 H 7 V 7 H 8 V 2.4 h 5.8 c 0.6,0 1,0.4 1,1 z"/></g></svg>