<?xml version="1.0" encoding="utf-8"?>
<!-- Generator: Adobe Illustrator 23.0.3, SVG Export Plug-In . SVG Version: 6.00 Build 0)  -->
<svg version="1.1" id="Icons" xmlns="http://www.w3.org/2000/svg" xmlns:xlink="http://www.w3.org/1999/xlink" x="0px" y="0px"
	 viewBox="0 0 32 32" style="enable-background:new 0 0 32 32;" xml:space="preserve">
<path d="M29.6,5.2C29.3,5,29,4.9,28.7,5.1c-4.3,1.4-8.7,0.3-12-2.8c-0.4-0.4-1-0.4-1.4,0c-3.3,3.1-7.7,4.2-12,2.8
	C3,4.9,2.7,5,2.4,5.2C2.2,5.4,2,5.7,2,6c0,15.7,6.9,20.9,13.6,23.9C15.7,30,15.9,30,16,30s0.3,0,0.4-0.1C23.1,26.9,30,21.7,30,6
	C30,5.7,29.8,5.4,29.6,5.2z M21.9,18.3C21.3,21,18.8,23,16,23c0,0,0,0,0,0c-3.1,0-5.8-2.6-5.9-5.5c-0.1-2,0.5-3.8,1.8-5.4l0.3-0.3
	c0.8-1,1.5-1.9,1.9-3c0.1-0.2,0.3-0.4,0.4-0.5c0.4-0.3,1-0.2,1.3,0.1c1.1,1.2,1.7,2.3,1.9,3.6c0.2,0.9,0.2,1.9,0.3,2.8l0,0.5
	c0.7-0.1,1.2-0.4,1.5-1l0.2-0.3c0.2-0.3,0.5-0.5,0.9-0.5c0.4,0,0.7,0.2,0.9,0.6C22,15.2,22.2,16.9,21.9,18.3z" fill="context-fill"/>
</svg>
