<svg xmlns="http://www.w3.org/2000/svg" viewBox="0 0 32 32">
<symbol id="icon">
	<path d="M26,2H6C3.8,2,2,3.8,2,6v20c0,2.2,1.8,4,4,4h20c2.2,0,4-1.8,4-4V6C30,3.8,28.2,2,26,2z M12,20
		c-0.552,0-1-0.447-1-1v-6l16,0v7H12z M5,6c0-0.542,0.458-1,1-1h20c0.542,0,1,0.458,1,1v6.012l-21,0V12c-0.552,0-1-0.448-1-1V6z
		 M26,27h-8c-0.553,0-1-0.447-1-1v-5.013h10V26C27,26.542,26.542,27,26,27z" fill="context-fill"/>
</symbol>
<g id="toolbar-theme" class="theme toolbar">
	<use href="#icon"/>
</g>
<g id="default-theme" class="theme default">
	<use href="#icon"/>
</g>
<g id="toolbar" class="prefer-color-scheme toolbar">
	<use href="#icon"/>
</g>
<g id="default" class="prefer-color-scheme default">
	<use href="#icon"/>
</g>
<g id="mask" class="mask">
	<use href="#icon"/>
</g>
</svg>