<?xml version="1.0" encoding="UTF-8"?><svg width="24" height="24" viewBox="0 0 48 48" fill="none" xmlns="http://www.w3.org/2000/svg"><path d="M 36.103594,2.2135299 H 11.896405 c -5.3477067,0 -9.6828751,4.3351686 -9.6828751,9.6828761 v 24.207189 c 0,5.347731 4.3351684,9.682875 9.6828751,9.682875 h 24.207189 c 5.347732,0 9.682876,-4.335144 9.682876,-9.682875 V 11.896406 c 0,-5.3477075 -4.335144,-9.6828761 -9.682876,-9.6828761 z" fill="none" stroke="context-fill" stroke-width="4" stroke-linejoin="round"/><path d="M24 32C28.4183 32 32 28.4183 32 24C32 19.5817 28.4183 16 24 16C19.5817 16 16 19.5817 16 24C16 28.4183 19.5817 32 24 32Z" fill="none" stroke="context-fill" stroke-width="4" stroke-linejoin="round"/><path d="M35 15C36.1046 15 37 14.1046 37 13C37 11.8954 36.1046 11 35 11C33.8954 11 33 11.8954 33 13C33 14.1046 33.8954 15 35 15Z" fill="context-fill"/></svg>