<svg viewBox="0 0 512 512" xmlns="http://www.w3.org/2000/svg"><path d="M 257.15756,0.91403531 C 112.79291,0.91403531 0.91367348,106.42197 0.91367348,248.9309 c 0,74.53804 30.62967452,138.95211 80.48666052,183.44814 8.608476,7.74247 6.835233,12.22712 8.299188,60.03251 a 20.536625,20.536625 0 0 0 28.743018,18.11388 c 54.54784,-24.02126 55.2489,-25.91821 64.49656,-23.40268 C 340.97419,530.61874 512.26738,429.48205 512.26738,248.9309 512.26738,106.42197 401.5325,0.91403531 257.15756,0.91403531 Z M 411.01729,191.77475 335.75757,310.92222 A 38.52679,38.52679 0 0 1 280.17879,321.1596 L 220.3009,276.34399 a 15.464326,15.464326 0 0 0 -18.55718,0 l -80.79594,61.27996 c -10.7838,8.17548 -24.907881,-4.74239 -17.63964,-16.15506 l 75.25971,-119.14748 a 38.51648,38.51648 0 0 1 55.57879,-10.23738 l 59.85725,44.8053 a 15.464326,15.464326 0 0 0 18.55718,0 l 80.8372,-61.2181 c 10.76317,-8.22702 24.88726,4.68053 17.61902,16.10352 z" fill="context-fill" /></svg>