<!-- This Source Code Form is subject to the terms of the Mozilla Public
   - License, v. 2.0. If a copy of the MPL was not distributed with this
   - file, You can obtain one at http://mozilla.org/MPL/2.0/. -->
<svg xmlns="http://www.w3.org/2000/svg" viewBox="0 0 12 12" width="12" height="12" fill="context-fill" fill-opacity="context-fill-opacity">
  <path fill="context-fill" d="m 6.7,2.6 v 6.8 c 0,0.7 -0.9,1 -1.3,0.5 L 3.7,7.9 H 2.2 C 1.8,7.9 1.5,7.6 1.5,7.1 V 4.9 C 1.5,4.5 1.8,4.1 2.2,4.1 h 1.5 l 1.7,-2 C 5.9,1.6 6.7,1.9 6.7,2.6 Z M 7.738053,3.6848976 C 7.233105,3.5595185 7.1940419,4.5514404 7.3513274,4.3008268 7.8650986,5.10346 10.508487,7.8343292 10.959865,8.176452 11.03398,8.232628 11.420195,8.0601353 11.39012,7.4892312 10.578884,6.456868 8.196763,3.7987958 7.738053,3.6848976 Z m 0.1681413,4.4831858 c -0.2,0.1 3.4805307,-4.0053097 3.4805307,-3.8053097 C 11.476404,3.4268434 10.780268,3.6258461 10.951805,3.507548 9.6079785,4.6693498 7.5167005,7.3606956 7.4230664,7.4666304 7.1264083,7.8022599 7.8328773,8.3614352 7.9061943,8.1680834 Z"/>
</svg>