<?xml version="1.0" encoding="UTF-8" standalone="no"?>
<svg
   xmlns:dc="http://purl.org/dc/elements/1.1/"
   xmlns:cc="http://creativecommons.org/ns#"
   xmlns:rdf="http://www.w3.org/1999/02/22-rdf-syntax-ns#"
   xmlns:svg="http://www.w3.org/2000/svg"
   xmlns="http://www.w3.org/2000/svg"
   xmlns:sodipodi="http://sodipodi.sourceforge.net/DTD/sodipodi-0.dtd"
   xmlns:inkscape="http://www.inkscape.org/namespaces/inkscape"
   viewBox="0 0 12 12"
   width="12"
   height="12"
   fill-opacity="context-fill-opacity"
   version="1.1"
   id="svg6"
   sodipodi:docname="muted3.svg"
   inkscape:version="1.0.2-2 (e86c870879, 2021-01-15)">
  <metadata
     id="metadata12">
    <rdf:RDF>
      <cc:Work
         rdf:about="">
        <dc:format>image/svg+xml</dc:format>
        <dc:type
           rdf:resource="http://purl.org/dc/dcmitype/StillImage" />
        <dc:title></dc:title>
      </cc:Work>
    </rdf:RDF>
  </metadata>
  <defs
     id="defs10" />
  <sodipodi:namedview
     pagecolor="#ffffff"
     bordercolor="#666666"
     borderopacity="1"
     objecttolerance="10"
     gridtolerance="10"
     guidetolerance="10"
     inkscape:pageopacity="0"
     inkscape:pageshadow="2"
     inkscape:window-width="1293"
     inkscape:window-height="661"
     id="namedview8"
     showgrid="false"
     inkscape:zoom="34.058977"
     inkscape:cx="3.3005243"
     inkscape:cy="5.2012591"
     inkscape:window-x="-7"
     inkscape:window-y="69"
     inkscape:window-maximized="0"
     inkscape:current-layer="svg6" />
  <circle
     fill="context-stroke"
     cx="6"
     cy="6"
     r="6"
     id="circle2" />
  <path
     fill="context-fill"
     d="M 6.8,5.5 4.5,3.3 5.4,2.2 C 5.8,1.7 6.7,2 6.7,2.7 V 5.5 Z M 8.8,6 C 8.8,5 8.3,4.1 7.5,3.6 v 2.7 l 1,1 C 8.7,6.9 8.8,6.4 8.8,6 Z M 7.7,2.6 c 1.3,0.7 2,2 2,3.4 0,0.7 -0.2,1.4 -0.5,2 L 9.7,8.5 C 10.2,7.7 10.5,6.9 10.5,6 10.5,4.3 9.6,2.7 8.1,1.9 7.9,1.8 7.7,1.9 7.6,2.1 7.5,2.3 7.5,2.5 7.7,2.6 Z M 3.8037942,3.7625159 C 3.7032864,3.6630263 2.2,2.4 2.1,2.5 2,2.6 3.1435736,3.9221936 3.1863509,4.0569901 L 3.2,4.1 h -1 C 1.8,4.1 1.4,4.4 1.4,4.9 v 2.2 c 0,0.4 0.3,0.8 0.8,0.8 h 1.5 l 1.7,2 c 0.4,0.5 1.3,0.2 1.3,-0.5 V 7.7 L 8.1,9.1 8.6706392,9.6293608 9.1,10 c 0.1070522,0.09241 0.4,0.1 0.5,0 0.1,-0.1 0.1005078,-0.4005104 0,-0.5 z"
     id="path4"
     sodipodi:nodetypes="cccsccscccscsccscscssscssssccscccssss" />
</svg>
