<!DOCTYPE svg PUBLIC "-//W3C//DTD SVG 1.1//EN" "http://www.w3.org/Graphics/SVG/1.1/DTD/svg11.dtd">
<!-- Uploaded to: SVG Repo, www.svgrepo.com, Transformed by: SVG Repo Mixer Tools -->
<svg fill="context-fill" height="64px" width="64px" version="1.1" id="Capa_1" xmlns="http://www.w3.org/2000/svg" xmlns:xlink="http://www.w3.org/1999/xlink" viewBox="0 0 482.9 482.9" xml:space="preserve">
<g id="SVGRepo_bgCarrier" stroke-width="0"/>
<g id="SVGRepo_tracerCarrier" stroke-linecap="round" stroke-linejoin="round"/>
<g id="SVGRepo_iconCarrier"> <g> <g> <g> <path d="M472.8,357.6c-35.5-29.2-73.7-48.5-81.5-52.3c-0.9-0.4-1.4-1.3-1.4-2.3v-55.2c6.9-4.6,11.5-12.5,11.5-21.5V169 c0-28.5-23.1-51.6-51.6-51.6h-6.2h-6.1c-28.5,0-51.6,23.1-51.6,51.6v57.3c0,9,4.6,16.9,11.5,21.5V303c0,0.3-0.1,0.7-0.2,1 c10.9,7.5,22.2,15.8,33.3,24.9c13,10.7,20.4,26.5,20.4,43.3v46.1h132V379C482.9,370.8,479.2,362.9,472.8,357.6z"/> </g> <g> <path d="M315.6,347c-41.7-34.3-86.7-57-95.8-61.5c-1-0.5-1.7-1.6-1.7-2.7v-64.9c8.2-5.4,13.6-14.7,13.6-25.3v-67.3 c0-33.5-27.2-60.7-60.7-60.7h-7.2h-7.3c-33.5,0-60.7,27.2-60.7,60.7v67.3c0,10.5,5.4,19.8,13.6,25.3v64.9c0,1.1-0.7,2.2-1.7,2.7 c-9.2,4.5-54.1,27.2-95.8,61.5C4.4,353.2,0,362.5,0,372.2v46.1h163.7h163.8v-46.1C327.5,362.5,323.2,353.2,315.6,347z"/> </g> </g> </g> </g>
</svg>