<svg width="17" height="16" xmlns="http://www.w3.org/2000/svg"><defs><linearGradient id="a" x1="0" x2="100%" y1="0" y2="0"><stop offset="50%" stop-color="#fff"/><stop offset="50%" stop-color="#606060"/></linearGradient></defs><path d="M1216.676 197.013a1.15 1.15 0 0 0-.894-.742l-4.324-.74-2.037-3.914a1.17 1.17 0 0 0-1.04-.617 1.17 1.17 0 0 0-1.042.617l-2.038 3.914-4.315.738a1.15 1.15 0 0 0-.903.743 1.08 1.08 0 0 0 .253 1.114l3.095 3.187-.644 4.415c-.06.414.125.825.482 1.066.356.24.823.27 1.21.076l3.9-1.949 3.903 1.952c.386.194.853.164 1.21-.076.356-.24.542-.652.482-1.066l-.645-4.418 3.094-3.186a1.08 1.08 0 0 0 .253-1.114Z" transform="translate(-1200 -191)" fill-rule="nonzero" fill="url(#a)"/></svg>