<?xml version="1.0" encoding="UTF-8" standalone="no"?>
<!-- This Source Code Form is subject to the terms of the Mozilla Public
   - License, v. 2.0. If a copy of the MPL was not distributed with this
   - file, You can obtain one at http://mozilla.org/MPL/2.0/. -->

<svg
   viewBox="0 0 16 16"
   width="16"
   height="16"
   fill="context-fill"
   fill-opacity="context-fill-opacity"
   version="1.1"
   id="svg4"
   sodipodi:docname="reload.svg"
   inkscape:version="1.1.1 (3bf5ae0d25, 2021-09-20)"
   xmlns:inkscape="http://www.inkscape.org/namespaces/inkscape"
   xmlns:sodipodi="http://sodipodi.sourceforge.net/DTD/sodipodi-0.dtd"
   xmlns="http://www.w3.org/2000/svg"
   xmlns:svg="http://www.w3.org/2000/svg">
  <defs
     id="defs8" />
  <sodipodi:namedview
     id="namedview6"
     pagecolor="#505050"
     bordercolor="#eeeeee"
     borderopacity="1"
     inkscape:pageshadow="0"
     inkscape:pageopacity="0"
     inkscape:pagecheckerboard="0"
     showgrid="false"
     inkscape:zoom="22.627417"
     inkscape:cx="7.8223688"
     inkscape:cy="9.8773978"
     inkscape:window-width="1366"
     inkscape:window-height="715"
     inkscape:window-x="-8"
     inkscape:window-y="-8"
     inkscape:window-maximized="1"
     inkscape:current-layer="svg4" />
  <path
     d="m 10.14778,6.0477981 h 4.075072 l -0.0035,-0.733362 3e-6,-3.2099544 V 1.3052056 L 12.079035,3.150325 C 10.868957,2.0324886 9.3574427,1.2957607 7.7206098,1.297405 c -3.643493,0 -6.6090829,3.0075506 -6.6090829,6.7025961 0,3.6950449 2.9655899,6.7025969 6.6090829,6.7025969 3.4076182,0.01397 5.8275832,-2.327904 6.5053532,-5.0775423 l -1.53913,0.00241 c -0.526153,2.1719273 -2.167468,3.8896173 -4.9662232,3.8782403 -2.9939145,0 -5.4288895,-2.469428 -5.4288895,-5.5057048 0,-3.0362761 2.434975,-5.5057041 5.4288895,-5.5057041 1.3244331,-0.00198 2.6923712,0.4507159 3.6816362,1.34379 l -2.302095,2.209711 z"
     id="path2"
     style="fill-opacity:1;stroke-width:0.95081"
     sodipodi:nodetypes="cccccccsccccscccc" />
</svg>
