<?xml version="1.0" encoding="UTF-8" standalone="no"?>
<!-- This Source Code Form is subject to the terms of the Mozilla Public
   - License, v. 2.0. If a copy of the MPL was not distributed with this
   - file, You can obtain one at http://mozilla.org/MPL/2.0/. -->

<svg
   viewBox="0 0 16 16"
   width="16"
   height="16"
   fill="context-fill"
   fill-opacity="context-fill-opacity"
   version="1.1"
   id="svg4"
   sodipodi:docname="security.svg"
   inkscape:version="1.1.1 (3bf5ae0d25, 2021-09-20)"
   xmlns:inkscape="http://www.inkscape.org/namespaces/inkscape"
   xmlns:sodipodi="http://sodipodi.sourceforge.net/DTD/sodipodi-0.dtd"
   xmlns="http://www.w3.org/2000/svg"
   xmlns:svg="http://www.w3.org/2000/svg">
  <defs
     id="defs8" />
  <sodipodi:namedview
     id="namedview6"
     pagecolor="#505050"
     bordercolor="#eeeeee"
     borderopacity="1"
     inkscape:pageshadow="0"
     inkscape:pageopacity="0"
     inkscape:pagecheckerboard="0"
     showgrid="false"
     inkscape:zoom="11.313709"
     inkscape:cx="-9.5459415"
     inkscape:cy="9.0598056"
     inkscape:window-width="1347"
     inkscape:window-height="631"
     inkscape:window-x="0"
     inkscape:window-y="58"
     inkscape:window-maximized="0"
     inkscape:current-layer="svg4" />
  <path
     d="M 11.499113,5.7826117 11.478837,3.9580571 C 11.394923,1.9665769 10.120614,0.0426932 7.9146135,0.0426932 c -2.206,0 -3.5330849,1.8288861 -3.5434658,3.8711697 l 0.013091,1.911442 c -2.1292072,0 -2.4696256,0.8288443 -2.4696256,1.9039403 v 5.4275638 c 0,1.075095 0.8954305,1.946633 2,1.946633 h 8.0000005 c 1.104569,0 2,-0.871538 2,-1.946633 V 7.7292452 c 0,-1.075096 -0.316483,-1.9466335 -2.415501,-1.9466335 z M 5.3780797,3.93596 c 0,-1.4765215 0.9974367,-2.98598022 2.5144367,-2.98598022 1.517,0 2.5586316,1.50945872 2.5586316,2.98598022 V 5.7826117 H 5.3780797 Z m 6.6865343,3.6242773 v 0 H 3.7646135 v 0 0 0 z"
     id="path2"
     style="fill-opacity:1;stroke-width:0.986568"
     sodipodi:nodetypes="ccsccsssssscsssccsccccccc" />
</svg>
