<!DOCTYPE svg PUBLIC "-//W3C//DTD SVG 1.1//EN" "http://www.w3.org/Graphics/SVG/1.1/DTD/svg11.dtd">
<!-- Uploaded to: SVG Repo, www.svgrepo.com, Transformed by: SVG Repo Mixer Tools -->
<svg fill="context-fill" height="800px" width="800px" version="1.1" id="Capa_1" xmlns="http://www.w3.org/2000/svg" xmlns:xlink="http://www.w3.org/1999/xlink" viewBox="-20.48 -20.48 552.96 552.96" xml:space="preserve" stroke="#000000" stroke-width="0.00512">
<g id="SVGRepo_bgCarrier" stroke-width="0"/>
<g id="SVGRepo_tracerCarrier" stroke-linecap="round" stroke-linejoin="round"/>
<g id="SVGRepo_iconCarrier"> <g> <g> <path d="M256,0C114.842,0,0,114.842,0,256s114.842,256,256,256s256-114.842,256-256S397.158,0,256,0z M256,465.455 c-115.493,0-209.455-93.961-209.455-209.455S140.507,46.545,256,46.545S465.455,140.507,465.455,256S371.493,465.455,256,465.455z "/> </g> </g> <g> <g> <path d="M318.061,139.636c-12.853,0-23.273,10.42-23.273,23.273v186.182c0,12.853,10.42,23.273,23.273,23.273 c12.853,0,23.273-10.42,23.273-23.273V162.909C341.333,150.056,330.913,139.636,318.061,139.636z"/> </g> </g> <g> <g> <path d="M193.939,139.636c-12.853,0-23.273,10.42-23.273,23.273v186.182c0,12.853,10.42,23.273,23.273,23.273 c12.853,0,23.273-10.42,23.273-23.273V162.909C217.212,150.056,206.792,139.636,193.939,139.636z"/> </g> </g> </g>
</svg>