<?xml version="1.0" encoding="UTF-8" standalone="no"?>
<!-- Uploaded to: SVG Repo, www.svgrepo.com, Generator: SVG Repo Mixer Tools -->

<svg
   width="800"
   height="800"
   viewBox="0 0 24 24"
   fill="none"
   version="1.1"
   id="svg1"
   xmlns="http://www.w3.org/2000/svg"
   xmlns:svg="http://www.w3.org/2000/svg">
  <defs
     id="defs1" />
  <path
     fill-rule="evenodd"
     clip-rule="evenodd"
     d="m 12,2.75 c -5.10863,0 -9.25,4.14137 -9.25,9.25 0,5.1086 4.14137,9.25 9.25,9.25 5.1086,0 9.25,-4.1414 9.25,-9.25 C 21.25,6.89137 17.1086,2.75 12,2.75 Z M 1.25,12 C 1.25,6.06294 6.06294,1.25 12,1.25 17.9371,1.25 22.75,6.06294 22.75,12 22.75,17.9371 17.9371,22.75 12,22.75 6.06294,22.75 1.25,17.9371 1.25,12 Z M 11.948,7.850015 h 0.104 c 0.8985,-3e-5 1.6477,-5e-5 2.2425,0.07991 1.42838,0.1920509 1.582869,0.3419318 1.77561,1.775595 0.08,0.59478 0.0799,1.34398 0.0799,2.24248 0,1.097714 -0.0018,1.765697 -0.0799,2.3465 -0.19225,1.430028 -0.343724,1.583111 -1.77561,1.77561 -0.5948,0.08 -1.344,0.0799 -2.2425,0.0799 h -0.104 c -0.8985,0 -1.6477,10e-5 -2.24248,-0.0799 -1.4330918,-0.192665 -1.5834671,-0.346657 -1.775595,-1.77561 -0.07996,-0.5948 -0.07994,-1.344 -0.07991,-2.2425 0,-1.097132 0.00177,-1.765214 0.07991,-2.34648 C 8.1223909,8.274076 8.274786,8.1222955 9.70552,7.929925 10.3003,7.849965 11.0495,7.849985 11.948,7.850015 Z"
     fill="context-fill"
     id="path1" />
</svg>
