<!DOCTYPE svg PUBLIC "-//W3C//DTD SVG 1.1//EN" "http://www.w3.org/Graphics/SVG/1.1/DTD/svg11.dtd">
<!-- Uploaded to: SVG Repo, www.svgrepo.com, Transformed by: SVG Repo Mixer Tools -->
<svg width="64px" height="64px" viewBox="0 0 20 20" fill="none" xmlns="http://www.w3.org/2000/svg">
<g id="SVGRepo_bgCarrier" stroke-width="0"/>
<g id="SVGRepo_tracerCarrier" stroke-linecap="round" stroke-linejoin="round"/>
<g id="SVGRepo_iconCarrier" transform="matrix(1.1830922,0,0,1.1830922,-0.18309223,-3.4787522)"> <path d="M 3,5.5 C 3,4.11929 4.11929,3 5.5,3 h 9 C 15.8807,3 17,4.11929 17,5.5 v 9 c 0,1.3807 -1.1193,2.5 -2.5,2.5 h -4.0997 c 0.1619,-0.3168 0.2941,-0.6514 0.3927,-1 H 14.5 C 15.3284,16 16,15.3284 16,14.5 V 7 H 9.5 C 8.67157,7 8,6.32843 8,5.5 V 4 H 5.5 C 4.67157,4 4,4.67157 4,5.5 V 9.20703 C 3.65136,9.30564 3.31679,9.43777 3,9.59971 Z M 16,6 V 5.5 C 16,4.67157 15.3284,4 14.5,4 H 9 V 5.5 C 9,5.77614 9.22386,6 9.5,6 Z" fill="context-fill"/> <path d="M 10,14.5 C 10,16.9853 7.98528,19 5.5,19 3.01472,19 1,16.9853 1,14.5 1,12.0147 3.01472,10 5.5,10 7.98528,10 10,12.0147 10,14.5 Z M 5.5,12 C 5.22386,12 5,12.2239 5,12.5 v 2 C 5,14.7761 5.22386,15 5.5,15 H 7 C 7.27614,15 7.5,14.7761 7.5,14.5 7.5,14.2239 7.27614,14 7,14 H 6 V 12.5 C 6,12.2239 5.77614,12 5.5,12 Z" fill="context-fill"/> </g>
</svg>