<?xml version="1.0" ?><svg id="Layer_1" style="enable-background:new 0 0 128 128;" version="1.1" viewBox="0 0 128 128" xml:space="preserve" xmlns="http://www.w3.org/2000/svg" xmlns:xlink="http://www.w3.org/1999/xlink"><style type="text/css">
	.st0{fill:#ff4649;}
	.st1{fill:#00000090;}
</style><circle class="st0" cx="64" cy="64" r="64"/><path class="st1" d="M100.3,90.4L73.9,64l26.3-26.4c0.4-0.4,0.4-1,0-1.4l-8.5-8.5c-0.4-0.4-1-0.4-1.4,0L64,54.1L37.7,27.8  c-0.4-0.4-1-0.4-1.4,0l-8.5,8.5c-0.4,0.4-0.4,1,0,1.4L54,64L27.7,90.3c-0.4,0.4-0.4,1,0,1.4l8.5,8.5c0.4,0.4,1.1,0.4,1.4,0L64,73.9  l26.3,26.3c0.4,0.4,1.1,0.4,1.5,0.1l8.5-8.5C100.7,91.4,100.7,90.8,100.3,90.4z"/></svg>
