<?xml version="1.0" encoding="UTF-8" standalone="no"?>
<svg
   version="1.0"
   width="1280.000000pt"
   height="1280.000000pt"
   viewBox="0 0 1280.000000 1280.000000"
   preserveAspectRatio="xMidYMid meet"
   id="svg8"
   sodipodi:docname="delete9.svg"
   inkscape:version="1.1.1 (3bf5ae0d25, 2021-09-20)"
   xmlns:inkscape="http://www.inkscape.org/namespaces/inkscape"
   xmlns:sodipodi="http://sodipodi.sourceforge.net/DTD/sodipodi-0.dtd"
   xmlns="http://www.w3.org/2000/svg"
   xmlns:svg="http://www.w3.org/2000/svg">
  <defs
     id="defs12" />
  <sodipodi:namedview
     id="namedview10"
     pagecolor="#505050"
     bordercolor="#eeeeee"
     borderopacity="1"
     inkscape:pageshadow="0"
     inkscape:pageopacity="0"
     inkscape:pagecheckerboard="0"
     inkscape:document-units="pt"
     showgrid="false"
     inkscape:zoom="0.52249847"
     inkscape:cx="832.53832"
     inkscape:cy="418.18304"
     inkscape:window-width="1366"
     inkscape:window-height="705"
     inkscape:window-x="-8"
     inkscape:window-y="-8"
     inkscape:window-maximized="1"
     inkscape:current-layer="g6" />
  <metadata
     id="metadata2">
Created by potrace 1.15, written by Peter Selinger 2001-2017
</metadata>
  <g
     transform="translate(0.000000,1280.000000) scale(0.100000,-0.100000)"
     fill="context-fill"
     stroke="none"
     id="g6"
     style="fill-opacity:1">
    <path
       d="m 6295,11439 -651.0161,-5.427 -642.4415,1.644 L 4994,10223 l -4,-23 H 3733.1029 c -976,0 -993,-1 -1037,-21 -55,-25 -95,-62 -123,-114 -21,-38 -22,-53 -25,-388 -3,-407 0,-429 73,-502 66,-67 106,-75 367,-75 h 218 6282.7192 L 3470.282,7979.8144 3472,5513 l 3,-3588 23,-70 c 43,-125 90,-204 177,-290 130,-129 249,-186 431,-205 67,-7 811,-10 2314,-8 2077,3 2219,5 2280,21 231,63 418,236 496,458 l 29,84 3,3593 1.7184,2471.8404 -5759.4364,-0.026 L 9488.8221,9100 h 268 c 314.9999,0 344.9999,5 415.9999,74 74,73 77,94 74,503 -3,335 -4,350 -25,388 -28,52 -68,89 -123,114 -44,20 -61,21 -1036.9999,21 H 7810 l -4,23 -1.8546,1204.696 z m 105,-1239 790,8 v 0 l -790,-8 -790,8 c -4.9997,0.05 0,0 0,0 z"
       id="path4"
       style="fill-opacity:1"
       sodipodi:nodetypes="cccccsscccsccccccccccccccccscccssccccccccscc" />
  </g>
</svg>
