<?xml version="1.0" encoding="utf-8"?><!-- Uploaded to: SVG Repo, www.svgrepo.com, Generator: SVG Repo Mixer Tools -->
<svg width="800px" height="800px" viewBox="0 0 24 24" fill="none" xmlns="http://www.w3.org/2000/svg">
<path d="m 15.29516,4.8008499 h 1.739965 c 0.44958,0 0.867167,0 1.255636,0.00268 v 5.8314391 l -0.844999,-0.472226 -0.01042,-0.0058 c -0.04121,-0.02312 -0.116589,-0.06542 -0.19124,-0.09825 -0.09813,-0.04326 -0.253547,-0.098255 -0.451137,-0.098255 -0.19759,0 -0.353002,0.054998 -0.451138,0.098255 -0.07465,0.03283 -0.150019,0.07513 -0.191238,0.09825 l -0.01042,0.0058 -0.844999,0.472226 z" fill="context-fill"/>
<path d="m 23.982402,11.748126 v 2.638646 c 0,4.518803 0,6.778325 -1.403858,8.182063 -1.403738,1.403858 -3.66326,1.403858 -8.182063,1.403858 H 9.6035196 c -4.5188514,0 -6.7782651,0 -8.1820994,-1.403858 C 0.01759798,21.165097 0.01759798,18.905575 0.01759798,14.386772 V 5.9388786 c 0,-1.0574831 0,-1.5862304 0.08309792,-2.0266556 C 0.46650669,1.9733745 1.9830833,0.45679784 3.9219319,0.09098709 4.362357,0.00788913 4.8911044,0.00788913 5.9485875,0.00788913 c 0.4633235,0 0.6949912,0 0.9176362,0.02082541 0.9598863,0.08976018 1.8703931,0.46690628 2.612607,1.08216666 0.1721392,0.1427105 0.3359386,0.3065339 0.6635373,0.6341567 l 0.659392,0.6593316 c 0.977523,0.9775004 1.466286,1.4662507 2.051507,1.7918843 0.207295,0.1153428 0.422739,0.2150483 0.644534,0.298362 v 0.3062341 6.4991351 0.03475 c -1.21e-4,0.161884 -2.41e-4,0.36235 0.02204,0.530461 0.02324,0.174704 0.0992,0.57264 0.479536,0.835414 0.415789,0.287219 0.841643,0.179017 1.035399,0.108081 0.162362,-0.05931 0.337904,-0.157689 0.463479,-0.228145 l 0.03031,-0.01701 1.264383,-0.706603 1.264382,0.706603 0.03031,0.01701 c 0.125577,0.07046 0.30112,0.168833 0.463481,0.228145 0.193754,0.07093 0.619609,0.179138 1.035398,-0.108081 0.380323,-0.262774 0.456292,-0.66071 0.479537,-0.835414 0.02228,-0.168111 0.02216,-0.368577 0.02205,-0.530461 v -0.03475 -6.4429856 c 1.256714,0.086573 2.081581,0.3066057 2.703469,0.8658484 0.0943,0.084811 0.184049,0.1745596 0.268765,0.2688492 0.922046,1.0251185 0.922046,2.6022302 0.922046,5.756429 z" fill="context-fill"/>
</svg>