<?xml version="1.0" encoding="utf-8"?><!-- Uploaded to: SVG Repo, www.svgrepo.com, Generator: SVG Repo Mixer Tools -->
<svg width="800px" height="800px" viewBox="0 0 24 24" fill="none" xmlns="http://www.w3.org/2000/svg">
<path fill-rule="evenodd" clip-rule="evenodd" d="M 0.08580594,3.9118235 C 0.002604,4.3527998 0.002604,4.8822089 0.002604,5.9410151 v 8.4584639 c 0,4.524458 0,6.786807 1.4055789,8.192302 1.4055909,1.405615 3.6678319,1.405615 8.1923379,1.405615 h 4.7989582 c 4.524458,0 6.786807,0 8.192302,-1.405615 1.405615,-1.405495 1.405615,-3.667844 1.405615,-8.192302 v -2.641946 c 0,-3.1581469 0,-4.7372322 -0.9232,-5.7636334 C 22.989375,5.8994921 22.899514,5.8096316 22.805095,5.724714 21.778598,4.8015624 20.19962,4.8015624 17.041426,4.8015624 h -0.448343 c -1.384139,0 -2.076149,0 -2.721009,-0.1838241 C 13.517791,4.5167442 13.176225,4.3753069 12.854335,4.1962098 12.268382,3.8701686 11.779008,3.3808068 10.80026,2.4020832 L 10.140044,1.7419265 C 9.8120349,1.4138937 9.6480305,1.2498653 9.4756759,1.1069763 8.7325332,0.49094601 7.8208871,0.11332797 6.8597997,0.02345548 6.6368761,0.002604 6.4049184,0.002604 5.9410151,0.002604 c -1.0588062,0 -1.5882153,0 -2.0291916,0.08320194 C 1.9705489,0.45207445 0.45207445,1.9705489 0.08580594,3.9118235 Z M 14.056714,16.798958 c 1.514551,0 2.742244,-1.137473 2.742244,-2.540568 0,-1.112159 -0.771192,-2.057314 -1.845199,-2.401639 -0.152607,-1.269324 -1.314435,-2.2562302 -2.725209,-2.2562302 -1.514551,0 -2.7422924,1.1374732 -2.7422924,2.5405682 0,0.310373 0.060059,0.607788 0.1700511,0.882649 -0.128972,-0.02339 -0.2622271,-0.03575 -0.3985655,-0.03575 -1.1358895,0 -2.0567016,0.853134 -2.0567016,1.905546 0,1.052292 0.9208121,1.905426 2.0567016,1.905426 z" fill="black"/>
</svg>