<?xml version="1.0" encoding="utf-8"?><!-- Uploaded to: SVG Repo, www.svgrepo.com, Generator: SVG Repo Mixer Tools -->
<svg width="800px" height="800px" viewBox="0 0 24 24" fill="none" xmlns="http://www.w3.org/2000/svg">
<path fill-rule="evenodd" clip-rule="evenodd" d="m 23.997396,11.757533 v 2.641946 c 0,4.524458 0,6.786807 -1.405615,8.192302 -1.405495,1.405615 -3.667844,1.405615 -8.192302,1.405615 H 9.6005208 c -4.524506,0 -6.786747,0 -8.1923379,-1.405615 C 0.002604,21.186286 0.002604,18.923937 0.002604,14.399479 V 5.9410151 c 0,-1.0588062 0,-1.5882153 0.08320194,-2.0291916 C 0.45207445,1.9705489 1.9705489,0.45207445 3.9118235,0.08580594 4.3527998,0.002604 4.8822089,0.002604 5.9410151,0.002604 c 0.4639033,0 0.695861,0 0.9187846,0.02085148 0.9610874,0.08987249 1.8727335,0.46749053 2.6158762,1.08352082 0.1723546,0.142889 0.336359,0.3069174 0.6643681,0.6349502 l 0.660216,0.6601567 c 0.978748,0.9787236 1.468122,1.4680854 2.054075,1.7941266 0.32189,0.1790971 0.663456,0.3205344 1.017739,0.4215285 0.64486,0.1838241 1.33687,0.1838241 2.721009,0.1838241 h 0.448343 c 3.158194,0 4.737172,0 5.763669,0.9231516 0.09442,0.084918 0.18428,0.1747781 0.269101,0.2691856 0.9232,1.0264012 0.9232,2.6054865 0.9232,5.7636334 z M 12,9.9004557 c -1.822165,0 -3.2992839,1.4771193 -3.2992839,3.2992843 0,1.510232 1.0146198,2.783395 2.3994789,3.17511 v 2.223718 c 0,0.496932 0.402873,0.899804 0.899805,0.899804 0.496932,0 0.899805,-0.402872 0.899805,-0.899804 V 16.37485 c 1.384859,-0.391715 2.399479,-1.664878 2.399479,-3.17511 0,-1.822165 -1.477119,-3.2992843 -3.299284,-3.2992843 z" fill="context-fill"/>
</svg>