<?xml version="1.0" encoding="utf-8"?><!-- Uploaded to: SVG Repo, www.svgrepo.com, Generator: SVG Repo Mixer Tools -->
<svg width="800px" height="800px" viewBox="0 0 24 24" fill="none" xmlns="http://www.w3.org/2000/svg">
<path fill-rule="evenodd" clip-rule="evenodd" d="M 0.08580594,3.9118235 C 0.002604,4.3527998 0.002604,4.8822089 0.002604,5.9410151 v 8.4584639 c 0,4.524458 0,6.786807 1.4055789,8.192302 1.4055909,1.405615 3.6678319,1.405615 8.1923379,1.405615 h 4.7989582 c 4.524458,0 6.786807,0 8.192302,-1.405615 1.405615,-1.405495 1.405615,-3.667844 1.405615,-8.192302 v -2.641946 c 0,-3.1581469 0,-4.7372322 -0.9232,-5.7636334 C 22.989375,5.8994921 22.899514,5.8096316 22.805095,5.724714 21.778598,4.8015624 20.19962,4.8015624 17.041426,4.8015624 h -0.448343 c -1.384139,0 -2.076149,0 -2.721009,-0.1838241 C 13.517791,4.5167442 13.176225,4.3753069 12.854335,4.1962098 12.268382,3.8701686 11.779008,3.3808068 10.80026,2.4020832 L 10.140044,1.7419265 C 9.8120349,1.4138937 9.6480305,1.2498653 9.4756759,1.1069763 8.7325332,0.49094601 7.8208871,0.11332797 6.8597997,0.02345548 6.6368761,0.002604 6.4049184,0.002604 5.9410151,0.002604 c -1.0588062,0 -1.5882153,0 -2.0291916,0.08320194 C 1.9705489,0.45207445 0.45207445,1.9705489 0.08580594,3.9118235 Z M 13.142632,11.038889 13.024698,10.827255 C 12.568797,10.009392 12.340846,9.6005208 12,9.6005208 c -0.340846,0 -0.568797,0.4088712 -1.024698,1.2267342 l -0.117934,0.211634 c -0.129452,0.232389 -0.194238,0.348524 -0.295256,0.425187 -0.101018,0.07666 -0.226751,0.105217 -0.478336,0.162085 l -0.2290304,0.05183 c -0.8853358,0.200356 -1.3279797,0.300415 -1.4332929,0.639101 -0.1053131,0.338687 0.1964454,0.69153 0.7999864,1.397337 l 0.1561461,0.1826 c 0.1715028,0.200477 0.2572482,0.300775 0.2958798,0.424828 0.038512,0.124053 0.025554,0.257824 -3.6e-4,0.525486 L 9.64947,15.09089 c -0.091228,0.941676 -0.1368423,1.412454 0.1388098,1.621808 0.2758202,0.209235 0.6902102,0.01848 1.5191102,-0.363161 l 0.214394,-0.09874 C 11.757413,16.142341 11.875107,16.088113 12,16.088113 c 0.124893,0 0.242587,0.05423 0.478216,0.162684 l 0.214394,0.09874 c 0.8289,0.381637 1.24329,0.572396 1.51911,0.363161 0.2757,-0.209354 0.22999,-0.680132 0.13881,-1.621808 L 14.3269,14.847343 c -0.02591,-0.267662 -0.03887,-0.401433 -3.6e-4,-0.525486 0.03863,-0.124053 0.124413,-0.224351 0.295856,-0.424828 l 0.156206,-0.1826 c 0.603469,-0.705807 0.905323,-1.05865 0.799986,-1.397337 -0.105337,-0.338686 -0.548041,-0.438745 -1.433329,-0.639101 l -0.22903,-0.05183 c -0.251585,-0.05687 -0.377318,-0.08542 -0.478336,-0.162085 -0.101018,-0.07666 -0.165804,-0.192798 -0.295256,-0.425187 z" fill="context-fill"/>
</svg>