<?xml version="1.0" encoding="utf-8"?><!-- Uploaded to: SVG Repo, www.svgrepo.com, Generator: SVG Repo Mixer Tools -->
<svg width="800px" height="800px" viewBox="0 0 24 24" fill="none" xmlns="http://www.w3.org/2000/svg">
<path fill-rule="evenodd" clip-rule="evenodd" d="M 0.10069594,3.9219319 C 0.01759798,4.362357 0.01759798,4.8911045 0.01759798,5.9485874 V 14.39648 c 0,4.518804 0,6.778325 1.40382232,8.182064 1.4038342,1.403858 3.6632479,1.403858 8.1820993,1.403858 H 14.39648 c 4.518804,0 6.778325,0 8.182064,-1.403858 1.403858,-1.403739 1.403858,-3.66326 1.403858,-8.182064 v -2.638644 c 0,-3.1541999 0,-4.7313117 -0.922046,-5.7564302 C 22.975641,5.9071163 22.885892,5.8173681 22.791591,5.7325567 21.766377,4.8105588 20.189373,4.8105588 17.035125,4.8105588 h -0.447782 c -1.38241,0 -2.073555,0 -2.717609,-0.1835944 C 13.515894,4.5260966 13.174755,4.384836 12.853267,4.2059627 12.268046,3.880329 11.779284,3.3915788 10.80176,2.4140784 L 10.142368,1.7547467 C 9.8147693,1.4271239 9.6509699,1.2633005 9.4788307,1.1205901 8.7366168,0.50532967 7.82611,0.12818357 6.8662237,0.0384234 6.6435787,0.01759798 6.411911,0.01759798 5.9485874,0.01759798 c -1.0574829,0 -1.5862304,0 -2.0266555,0.08309796 C 1.9830834,0.46650669 0.46650669,1.9830834 0.10069594,3.9219319 Z M 14.993563,11.328267 c 0.370976,0.329755 0.404287,0.897841 0.07465,1.268816 l -3.195347,3.594721 c -0.17051,0.191838 -0.414951,0.301597 -0.671734,0.301597 -0.256663,0 -0.501104,-0.109759 -0.671613,-0.301597 L 8.9318341,14.394443 c -0.3297318,-0.370975 -0.2963248,-0.93906 0.074638,-1.268816 0.3709512,-0.329636 0.9390248,-0.296325 1.2687809,0.07465 l 0.92588,1.04175 2.523614,-2.83911 c 0.329756,-0.370975 0.897841,-0.404286 1.268816,-0.07465 z" fill="context-fill"/>
</svg>