<?xml version="1.0" encoding="utf-8"?><!-- Uploaded to: SVG Repo, www.svgrepo.com, Generator: SVG Repo Mixer Tools -->
<svg width="800px" height="800px" viewBox="0 0 24 24" fill="none" xmlns="http://www.w3.org/2000/svg">
<path opacity="1" d="M 23.953982,14.390796 V 11.75841 c 0,-3.1467185 0,-4.7200897 -0.919859,-5.7427768 C 22.949609,5.9215674 22.860073,5.832032 22.765996,5.7474217 21.743213,4.8276106 20.169949,4.8276106 17.023183,4.8276106 h -0.44672 c -1.379131,0 -2.068637,0 -2.711164,-0.1831589 C 13.512298,4.5438231 13.171968,4.4028976 12.851243,4.2244485 12.267411,3.8995871 11.779808,3.4119961 10.804602,2.4368142 L 10.146774,1.7790463 C 9.8199522,1.4522005 9.6565413,1.2887657 9.4848104,1.1463937 8.7443568,0.5325926 7.8360096,0.156341 6.8784,0.06679372 6.656283,0.0460177 6.4251647,0.0460177 5.9629401,0.0460177 c -1.0549748,0 -1.5824682,0 -2.0218488,0.08290087 C 2.0068414,0.49386169 0.49386169,2.0068414 0.12891857,3.9410913 0.0460177,4.3804719 0.0460177,4.9079653 0.0460177,5.9629401 v 8.4278559 c 0,4.508086 0,6.762249 1.4004927,8.162658 1.4005047,1.400528 3.6545595,1.400528 8.1626931,1.400528 h 4.7815925 c 4.508086,0 6.762249,0 8.162658,-1.400528 1.400528,-1.400409 1.400528,-3.654572 1.400528,-8.162658 z" fill="context-fill"/>
</svg>