<?xml version="1.0" encoding="UTF-8" standalone="no"?> <svg width="512" height="512" viewBox="0 0 512 512" fill="none" xmlns="http://www.w3.org/2000/svg">
<path fill-rule="evenodd" clip-rule="evenodd" d="M480 256C480 379.712 379.712 480 256 480C211.92 480 170.814 467.268 136.159 445.28L32 480L66.7197 375.841C44.7323 341.186 32 300.08 32 256C32 132.288 132.288 32 256 32C379.712 32 480 132.288 480 256ZM331.463 383.553C223.599 391.494 123.334 292.571 137.307 175.331C141.676 138.679 184.047 118.102 205.62 132.765C208.828 134.946 217.751 164.163 217.097 184.449C216.953 188.9 214.271 192.746 210.515 195.138L197.641 203.337C191.702 207.12 188.888 214.361 191.039 221.067C208.437 275.311 237.812 310.777 291.414 327.461C298.072 329.533 305.176 326.567 308.823 320.623L314.314 311.67C318.074 305.54 325.476 302.63 332.287 304.939C352.429 311.766 372.424 321.128 374.61 326.943C381.801 348.926 360.153 381.441 331.463 383.553Z" fill="context-fill"/>
</svg>
