<svg xmlns="http://www.w3.org/2000/svg" width="16" height="16" viewBox="0 0 16 16" fill="context-fill">
	<path d="M 8.4280761,7.126672 H 1.3040447 A 0.44525195,0.44525195 0 0 1 0.85879283,6.68142 V 2.6741523 A 1.7810078,1.7810078 0 0 1 2.6398007,0.89314455 H 8.4280761 A 0.44525195,0.44525195 0 0 1 8.8733279,1.3383966 V 6.68142 A 0.44525195,0.44525195 0 0 1 8.4280761,7.126672 Z"/>
	<path d="m 7.5375723,15.141207 h 5.7882747 a 1.7810078,1.7810078 0 0 0 1.781008,-1.781008 V 9.3529317 A 0.44525195,0.44525195 0 0 0 14.661604,8.9076798 H 7.5375723 A 0.44525195,0.44525195 0 0 0 7.0923202,9.3529317 v 5.3430233 a 0.44525195,0.44525195 0 0 0 0.4452521,0.445252 z"/>
	<path d="m 2.6398007,15.141207 h 2.2262597 a 0.44525195,0.44525195 0 0 0 0.445252,-0.445252 V 9.3529317 A 0.44525195,0.44525195 0 0 0 4.8660604,8.9076798 H 1.3040447 A 0.44525195,0.44525195 0 0 0 0.85879283,9.3529317 v 4.0072673 a 1.7810078,1.7810078 0 0 0 1.78100787,1.781008 z"/>
	<path d="M 14.661604,7.126672 H 11.099589 A 0.44525195,0.44525195 0 0 1 10.654335,6.68142 V 1.3383966 a 0.44525195,0.44525195 0 0 1 0.445254,-0.44525205 h 2.226258 A 1.7810078,1.7810078 0 0 1 15.106855,2.6741523 V 6.68142 a 0.44525195,0.44525195 0 0 1 -0.445251,0.445252 z"/>
</svg>