<?xml version="1.0" encoding="UTF-8" standalone="no"?> <svg xmlns="http://www.w3.org/2000/svg" viewBox="0 0 107.3 107.3"><defs><style>.cls-1,.cls-2{fill:context-fill;}.cls-2{fill-rule:evenodd;}</style></defs><title>Asset 4</title><g id="Layer_2" data-name="Layer 2"><g id="图层_1" data-name="图层 1"><path class="cls-1" d="M84.68,34.07a25.61,25.61,0,0,1-6.31,1.81c1-.18,2.51-2,3.11-2.76a11.7,11.7,0,0,0,2.11-3.83c0-.11.09-.25,0-.33a.32.32,0,0,0-.33,0,32.46,32.46,0,0,1-7.5,2.87.51.51,0,0,1-.52-.14,5.24,5.24,0,0,0-.66-.67,13.3,13.3,0,0,0-3.63-2.23,12.66,12.66,0,0,0-5.58-.9,13.29,13.29,0,0,0-5.29,1.5A13.65,13.65,0,0,0,55.8,32.9,13,13,0,0,0,53.25,38a13.92,13.92,0,0,0-.14,5.38c0,.3,0,.35-.25.3C42.55,42.16,34,38.47,27.07,30.57c-.3-.34-.46-.34-.71,0-3,4.55-1.56,11.85,2.23,15.45.51.47,1,1,1.59,1.39a13.2,13.2,0,0,1-5-1.39c-.3-.2-.45-.09-.48.26a8.25,8.25,0,0,0,.08,1.47A13.24,13.24,0,0,0,33,58.32a7.89,7.89,0,0,0,1.65.51,14.79,14.79,0,0,1-4.88.15c-.35-.07-.49.11-.35.45C31.52,65.28,36.15,67,39.62,68c.47.09.93.09,1.4.19,0,0-.06,0-.09.09-1.15,1.75-5.14,3.06-7,3.71A25.12,25.12,0,0,1,23.3,73.36c-.57-.08-.69-.08-.85,0s0,.23.17.38c.72.48,1.46.9,2.21,1.31a35.21,35.21,0,0,0,7.11,2.85c12.77,3.53,27.16.93,36.76-8.6,7.53-7.48,10.17-17.8,10.17-28.13,0-.41.48-.63.76-.85a24.58,24.58,0,0,0,5-5.2,1.49,1.49,0,0,0,.31-1v-.06C84.92,33.91,84.94,34,84.68,34.07Z"/><path class="cls-2" d="M41,79.18Z"/><path class="cls-2" d="M41,79.18Z"/><path class="cls-2" d="M43.06,79.24c0-.11,1.11,0,0,0C43.06,79.18,43.2,79.24,43.06,79.24Z"/><path class="cls-2" d="M65.18,28a.21.21,0,0,1-.26,0Z"/><path class="cls-1" d="M88.49,6.89a11.94,11.94,0,0,1,11.92,11.92V88.49a11.94,11.94,0,0,1-11.92,11.92H18.81A11.94,11.94,0,0,1,6.89,88.49V18.81A11.94,11.94,0,0,1,18.81,6.89H88.49m0-6.89H18.81A18.81,18.81,0,0,0,0,18.81V88.49A18.81,18.81,0,0,0,18.81,107.3H88.49A18.81,18.81,0,0,0,107.3,88.49V18.81A18.81,18.81,0,0,0,88.49,0Z"/></g></g></svg>