<svg xmlns="http://www.w3.org/2000/svg" width="16" height="16" viewBox="0 0 16 16" fill="context-fill">
	<path d="M 8.5,7 H 0.5 A 0.5,0.5 0 0 1 0,6.5 v -4.5 a 2,2 0 0 1 2,-2 H 8.5 A 0.5,0.5 0 0 1 9,0.5 v 6 a 0.5,0.5 0 0 1 -0.5,0.5 z"/>
	<path d="M 7.5,16 H 14 a 2,2 0 0 0 2,-2 v -4.5 a 0.5,0.5 0 0 0 -0.5,-0.5 H 7.5 A 0.5,0.5 0 0 0 7,9.5 v 6 a 0.5,0.5 0 0 0 0.5,0.5 z"/>
	<path d="m 2,16 h 2.5 a 0.5,0.5 0 0 0 0.5,-0.5 v -6 a 0.5,0.5 0 0 0 -0.5,-0.5 H 0.5 A 0.5,0.5 0 0 0 0,9.5 v 4.5 a 2,2 0 0 0 2,2 z"/>
	<path d="m 15.5,7 h -4 a 0.5,0.5 0 0 1 -0.5,-0.5 v -6 a 0.5,0.5 0 0 1 0.5,-0.5 H 14 a 2,2 0 0 1 2,2 v 4.5 a 0.5,0.5 0 0 1 -0.5,0.5 z"/>
</svg>