<?xml version="1.0" encoding="UTF-8" standalone="no"?> <svg width="512" height="512" viewBox="0 0 512 512" fill="none" xmlns="http://www.w3.org/2000/svg">
<path fill-rule="evenodd" clip-rule="evenodd" d="m 511.94709,256 c 0,141.35592 -114.59116,255.94709 -255.94709,255.94709 -50.36673,0 -97.33531,-14.54784 -136.93284,-39.6718 L 0.05290641,511.94709 39.724363,392.93284 C 14.601099,353.33531 0.05290641,306.36673 0.05290641,256 0.05290641,114.64408 114.64408,0.05290641 256,0.05290641 397.35593,0.05290641 511.94709,114.64408 511.94709,256 Z M 342.22561,401.74473 C 218.97794,410.81828 104.41305,297.78679 120.37889,163.82591 c 4.99211,-41.87934 53.4061,-65.391054 78.05586,-48.6368 3.66554,2.49205 13.86114,35.87601 13.11387,59.05522 -0.16454,5.0858 -3.22905,9.48032 -7.52073,12.21347 l -14.7101,9.36835 c -6.78603,4.32254 -10.00137,12.59626 -7.54359,20.25867 19.87932,61.98033 53.44381,102.50453 114.69058,121.56801 7.60757,2.36752 15.72475,-1.0215 19.89189,-7.81324 l 6.27413,-10.22988 c 4.29625,-7.00427 12.75393,-10.3293 20.53633,-7.69098 23.01466,7.80067 45.86137,18.49789 48.35914,25.14223 8.21659,25.11823 -16.51887,62.27055 -49.30066,64.68377 z" fill="context-fill"/>
</svg>
