<?xml version="1.0" ?><svg id="Layer_1" style="enable-background:new 0 0 128 128;" version="1.1" viewBox="0 0 128 128" xml:space="preserve" xmlns="http://www.w3.org/2000/svg" xmlns:xlink="http://www.w3.org/1999/xlink"><style type="text/css">
	.st0{fill:#ad00ee;}
	.st1{fill:transparent;}
</style><circle class="st0" cx="64" cy="64" r="64"/><g><path class="st1" d="M103,29H25c-0.6,0-1,0.4-1,1v12c0,0.6,0.4,1,1,1h78c0.6,0,1-0.4,1-1V30C104,29.4,103.6,29,103,29z"/><path class="st1" d="M103,57H25c-0.6,0-1,0.4-1,1v12c0,0.6,0.4,1,1,1h78c0.6,0,1-0.4,1-1V58C104,57.4,103.6,57,103,57z"/><path class="st1" d="M103,85H25c-0.6,0-1,0.4-1,1v12c0,0.6,0.4,1,1,1h78c0.6,0,1-0.4,1-1V86C104,85.4,103.6,85,103,85z"/></g></svg>
