<?xml version="1.0" ?><svg id="Layer_1" style="enable-background:new 0 0 128 128;" version="1.1" viewBox="0 0 128 128" xml:space="preserve" xmlns="http://www.w3.org/2000/svg" xmlns:xlink="http://www.w3.org/1999/xlink"><style type="text/css">
	.st0{fill:#febc2e;}
	.st1{fill:transparent;}
</style><circle class="st0" cx="64" cy="64" r="64"/><path class="st1"
     d="m 71.019547,70.3154 -0.04134,0.664781 37.264421,-0.111971 c 0.56569,-6.28e-4 0.98948,-0.42536 0.98885,-0.991046 l -0.0133,-12.020808 c -0.001,-0.565687 -0.42536,-0.989478 -0.99104,-0.988852 l -37.264394,0.111972 -0.04118,0.806205 c -6.28e-4,-0.565685 -0.42536,-0.989478 -0.991046,-0.988852 l -12.020807,0.01331 c -0.565685,6.28e-4 -0.98948,0.42536 -0.988853,0.991045 l -0.02961,-0.876839 -37.193794,0.04118 c -0.565685,6.28e-4 -0.989479,0.42536 -0.988853,0.991045 l 0.01331,12.020808 c 6.28e-4,0.565685 0.49615,1.060111 0.991046,0.988852 l 37.264582,0.02945 0.04118,-0.806211 c 6.28e-4,0.56569 0.496148,1.06011 0.9912,1.13027 l 12.020809,-0.0133 c 0.565688,-10e-4 0.989479,-0.42536 0.988853,-0.99104 z"/></svg>
